M48
; DRILL file {KiCad 9.0.9.1-1.fc43} date 2026-06-11T03:51:24+0530
; FORMAT={-:-/ absolute / metric / decimal}
; #@! TF.CreationDate,2026-06-11T03:51:24+05:30
; #@! TF.GenerationSoftware,Kicad,Pcbnew,9.0.9.1-1.fc43
; #@! TF.FileFunction,Plated,1,2,PTH
FMAT,2
METRIC
; #@! TA.AperFunction,Plated,PTH,ViaDrill
T1C0.400
; #@! TA.AperFunction,Plated,PTH,ComponentDrill
T2C0.800
; #@! TA.AperFunction,Plated,PTH,ComponentDrill
T3C1.000
; #@! TA.AperFunction,Plated,PTH,ComponentDrill
T4C4.500
%
G90
G05
T1
X35.0Y-14.09
X35.0Y-15.99
X35.0Y-19.09
X35.0Y-20.99
X35.0Y-24.09
X35.0Y-25.99
X35.0Y-29.09
X35.0Y-30.99
X35.0Y-34.09
X35.0Y-35.99
X35.0Y-39.09
X35.0Y-40.99
X35.0Y-44.09
X35.0Y-45.99
T2
X15.0Y-26.5
X15.0Y-30.0
T3
X20.0Y-10.0
X20.0Y-12.54
X20.0Y-15.08
X20.0Y-20.0
X20.0Y-22.54
X20.0Y-25.08
X20.0Y-30.0
X20.0Y-32.54
X20.0Y-35.08
X20.0Y-40.0
X20.0Y-42.54
X20.0Y-45.08
X40.0Y-15.0
X40.0Y-17.54
X40.0Y-20.08
X40.0Y-25.0
X40.0Y-27.54
X40.0Y-30.08
X40.0Y-35.0
X40.0Y-37.54
X40.0Y-40.08
X46.0Y-12.54
X46.0Y-15.08
X46.0Y-17.54
X46.0Y-20.08
X46.0Y-22.54
X46.0Y-25.08
X46.0Y-27.54
X46.0Y-30.08
X46.0Y-32.54
X46.0Y-35.08
X46.0Y-37.54
X46.0Y-40.08
X46.0Y-42.54
X46.0Y-45.08
T4
X5.0Y-17.8
X5.0Y-25.0
M30
