%TF.GenerationSoftware,KiCad,Pcbnew,9.0.9.1-1.fc43*%
%TF.CreationDate,2026-06-11T03:51:15+05:30*%
%TF.ProjectId,DronePDB,44726f6e-6550-4444-922e-6b696361645f,rev?*%
%TF.SameCoordinates,Original*%
%TF.FileFunction,Copper,L1,Top*%
%TF.FilePolarity,Positive*%
%FSLAX46Y46*%
G04 Gerber Fmt 4.6, Leading zero omitted, Abs format (unit mm)*
G04 Created by KiCad (PCBNEW 9.0.9.1-1.fc43) date 2026-06-11 03:51:15*
%MOMM*%
%LPD*%
G01*
G04 APERTURE LIST*
G04 Aperture macros list*
%AMRoundRect*
0 Rectangle with rounded corners*
0 $1 Rounding radius*
0 $2 $3 $4 $5 $6 $7 $8 $9 X,Y pos of 4 corners*
0 Add a 4 corners polygon primitive as box body*
4,1,4,$2,$3,$4,$5,$6,$7,$8,$9,$2,$3,0*
0 Add four circle primitives for the rounded corners*
1,1,$1+$1,$2,$3*
1,1,$1+$1,$4,$5*
1,1,$1+$1,$6,$7*
1,1,$1+$1,$8,$9*
0 Add four rect primitives between the rounded corners*
20,1,$1+$1,$2,$3,$4,$5,0*
20,1,$1+$1,$4,$5,$6,$7,0*
20,1,$1+$1,$6,$7,$8,$9,0*
20,1,$1+$1,$8,$9,$2,$3,0*%
G04 Aperture macros list end*
%TA.AperFunction,SMDPad,CuDef*%
%ADD10RoundRect,0.250000X0.475000X-0.250000X0.475000X0.250000X-0.475000X0.250000X-0.475000X-0.250000X0*%
%TD*%
%TA.AperFunction,ComponentPad*%
%ADD11RoundRect,1.500000X1.500000X-1.500000X1.500000X1.500000X-1.500000X1.500000X-1.500000X-1.500000X0*%
%TD*%
%TA.AperFunction,ComponentPad*%
%ADD12C,6.000000*%
%TD*%
%TA.AperFunction,ComponentPad*%
%ADD13R,1.700000X1.700000*%
%TD*%
%TA.AperFunction,ComponentPad*%
%ADD14C,1.700000*%
%TD*%
%TA.AperFunction,ComponentPad*%
%ADD15RoundRect,0.250000X0.550000X-0.550000X0.550000X0.550000X-0.550000X0.550000X-0.550000X-0.550000X0*%
%TD*%
%TA.AperFunction,ComponentPad*%
%ADD16C,1.600000*%
%TD*%
%TA.AperFunction,ViaPad*%
%ADD17C,0.800000*%
%TD*%
G04 APERTURE END LIST*
D10*
%TO.P,C3,1*%
%TO.N,VOUT_12V_2*%
X35000000Y-25990000D03*
%TO.P,C3,2*%
%TO.N,GND*%
X35000000Y-24090000D03*
%TD*%
D11*
%TO.P,BT1,1*%
%TO.N,VIN*%
X5000000Y-25000000D03*
D12*
%TO.P,BT1,2*%
%TO.N,GND*%
X5000000Y-17800000D03*
%TD*%
D13*
%TO.P,J1,1*%
%TO.N,VOUT_12V_1*%
X46000000Y-12540000D03*
D14*
%TO.P,J1,2*%
%TO.N,GND*%
X46000000Y-15080000D03*
%TD*%
D13*
%TO.P,U3,1*%
%TO.N,VIN*%
X20000000Y-30000000D03*
D14*
%TO.P,U3,2*%
%TO.N,VOUT_9V_1*%
X20000000Y-32540000D03*
%TO.P,U3,3*%
%TO.N,GND*%
X20000000Y-35080000D03*
%TD*%
D10*
%TO.P,C5,1*%
%TO.N,VOUT_9V_2*%
X35000000Y-45990000D03*
%TO.P,C5,2*%
%TO.N,GND*%
X35000000Y-44090000D03*
%TD*%
D13*
%TO.P,U6,1*%
%TO.N,VIN*%
X40000000Y-25000000D03*
D14*
%TO.P,U6,2*%
%TO.N,VOUT_5V_2*%
X40000000Y-27540000D03*
%TO.P,U6,3*%
%TO.N,GND*%
X40000000Y-30080000D03*
%TD*%
D13*
%TO.P,U2,1*%
%TO.N,VIN*%
X20000000Y-20000000D03*
D14*
%TO.P,U2,2*%
%TO.N,VOUT_12V_2*%
X20000000Y-22540000D03*
%TO.P,U2,3*%
%TO.N,GND*%
X20000000Y-25080000D03*
%TD*%
D13*
%TO.P,U4,1*%
%TO.N,VIN*%
X20000000Y-40000000D03*
D14*
%TO.P,U4,2*%
%TO.N,VOUT_9V_2*%
X20000000Y-42540000D03*
%TO.P,U4,3*%
%TO.N,GND*%
X20000000Y-45080000D03*
%TD*%
D13*
%TO.P,J6,1*%
%TO.N,VOUT_5V_2*%
X46000000Y-27540000D03*
D14*
%TO.P,J6,2*%
%TO.N,GND*%
X46000000Y-30080000D03*
%TD*%
D15*
%TO.P,C1,1*%
%TO.N,VIN*%
X15000000Y-30000000D03*
D16*
%TO.P,C1,2*%
%TO.N,GND*%
X15000000Y-26500000D03*
%TD*%
D13*
%TO.P,U1,1*%
%TO.N,VIN*%
X20000000Y-10000000D03*
D14*
%TO.P,U1,2*%
%TO.N,VOUT_12V_1*%
X20000000Y-12540000D03*
%TO.P,U1,3*%
%TO.N,GND*%
X20000000Y-15080000D03*
%TD*%
D13*
%TO.P,J5,1*%
%TO.N,VOUT_5V_1*%
X46000000Y-17540000D03*
D14*
%TO.P,J5,2*%
%TO.N,GND*%
X46000000Y-20080000D03*
%TD*%
D13*
%TO.P,J2,1*%
%TO.N,VOUT_12V_2*%
X46000000Y-22540000D03*
D14*
%TO.P,J2,2*%
%TO.N,GND*%
X46000000Y-25080000D03*
%TD*%
D10*
%TO.P,C8,1*%
%TO.N,VOUT_5V_3*%
X35000000Y-40990000D03*
%TO.P,C8,2*%
%TO.N,GND*%
X35000000Y-39090000D03*
%TD*%
D13*
%TO.P,J3,1*%
%TO.N,VOUT_9V_1*%
X46000000Y-32540000D03*
D14*
%TO.P,J3,2*%
%TO.N,GND*%
X46000000Y-35080000D03*
%TD*%
D13*
%TO.P,U7,1*%
%TO.N,VIN*%
X40000000Y-35000000D03*
D14*
%TO.P,U7,2*%
%TO.N,VOUT_5V_3*%
X40000000Y-37540000D03*
%TO.P,U7,3*%
%TO.N,GND*%
X40000000Y-40080000D03*
%TD*%
D13*
%TO.P,U5,1*%
%TO.N,VIN*%
X40000000Y-15000000D03*
D14*
%TO.P,U5,2*%
%TO.N,VOUT_5V_1*%
X40000000Y-17540000D03*
%TO.P,U5,3*%
%TO.N,GND*%
X40000000Y-20080000D03*
%TD*%
D10*
%TO.P,C6,1*%
%TO.N,VOUT_5V_1*%
X35000000Y-20990000D03*
%TO.P,C6,2*%
%TO.N,GND*%
X35000000Y-19090000D03*
%TD*%
D13*
%TO.P,J7,1*%
%TO.N,VOUT_5V_3*%
X46000000Y-37540000D03*
D14*
%TO.P,J7,2*%
%TO.N,GND*%
X46000000Y-40080000D03*
%TD*%
D10*
%TO.P,C7,1*%
%TO.N,VOUT_5V_2*%
X35000000Y-30990000D03*
%TO.P,C7,2*%
%TO.N,GND*%
X35000000Y-29090000D03*
%TD*%
D13*
%TO.P,J4,1*%
%TO.N,VOUT_9V_2*%
X46000000Y-42540000D03*
D14*
%TO.P,J4,2*%
%TO.N,GND*%
X46000000Y-45080000D03*
%TD*%
D10*
%TO.P,C4,1*%
%TO.N,VOUT_9V_1*%
X35000000Y-35990000D03*
%TO.P,C4,2*%
%TO.N,GND*%
X35000000Y-34090000D03*
%TD*%
%TO.P,C2,1*%
%TO.N,VOUT_12V_1*%
X35000000Y-15990000D03*
%TO.P,C2,2*%
%TO.N,GND*%
X35000000Y-14090000D03*
%TD*%
D17*
%TO.N,VOUT_5V_3*%
X35000000Y-40990000D03*
%TO.N,VOUT_5V_2*%
X35000000Y-30990000D03*
%TO.N,VOUT_9V_1*%
X35000000Y-35990000D03*
%TO.N,VOUT_12V_1*%
X35000000Y-15990000D03*
%TO.N,VOUT_9V_2*%
X35000000Y-45990000D03*
%TO.N,VOUT_12V_2*%
X35000000Y-25990000D03*
%TO.N,VOUT_5V_1*%
X35000000Y-20990000D03*
%TO.N,GND*%
X35000000Y-29090000D03*
X35000000Y-34090000D03*
X35000000Y-24090000D03*
X35000000Y-44090000D03*
X35000000Y-14090000D03*
X35000000Y-19090000D03*
X35000000Y-39090000D03*
%TD*%
%TA.AperFunction,Conductor*%
%TO.N,VIN*%
G36*
X49442539Y-520185D02*
G01*
X49488294Y-572989D01*
X49499500Y-624500D01*
X49499500Y-49375500D01*
X49479815Y-49442539D01*
X49427011Y-49488294D01*
X49375500Y-49499500D01*
X624500Y-49499500D01*
X557461Y-49479815D01*
X511706Y-49427011D01*
X500500Y-49375500D01*
X500500Y-42433713D01*
X18649500Y-42433713D01*
X18649500Y-42646286D01*
X18682753Y-42856239D01*
X18748444Y-43058414D01*
X18844951Y-43247820D01*
X18969890Y-43419786D01*
X19120213Y-43570109D01*
X19292182Y-43695050D01*
X19300946Y-43699516D01*
X19351742Y-43747491D01*
X19368536Y-43815312D01*
X19345998Y-43881447D01*
X19300946Y-43920484D01*
X19292182Y-43924949D01*
X19120213Y-44049890D01*
X18969890Y-44200213D01*
X18844951Y-44372179D01*
X18748444Y-44561585D01*
X18682753Y-44763760D01*
X18675642Y-44808657D01*
X18649500Y-44973713D01*
X18649500Y-45186287D01*
X18682754Y-45396243D01*
X18744801Y-45587204D01*
X18748444Y-45598414D01*
X18844951Y-45787820D01*
X18969890Y-45959786D01*
X19120213Y-46110109D01*
X19292179Y-46235048D01*
X19292181Y-46235049D01*
X19292184Y-46235051D01*
X19481588Y-46331557D01*
X19683757Y-46397246D01*
X19893713Y-46430500D01*
X19893714Y-46430500D01*
X20106286Y-46430500D01*
X20106287Y-46430500D01*
X20316243Y-46397246D01*
X20518412Y-46331557D01*
X20707816Y-46235051D01*
X20729789Y-46219086D01*
X20879786Y-46110109D01*
X20879788Y-46110106D01*
X20879792Y-46110104D01*
X21030104Y-45959792D01*
X21030106Y-45959788D01*
X21030109Y-45959786D01*
X21155048Y-45787820D01*
X21155047Y-45787820D01*
X21155051Y-45787816D01*
X21251557Y-45598412D01*
X21317246Y-45396243D01*
X21350500Y-45186287D01*
X21350500Y-44973713D01*
X21317246Y-44763757D01*
X21251557Y-44561588D01*
X21155051Y-44372184D01*
X21155049Y-44372181D01*
X21155048Y-44372179D01*
X21030109Y-44200213D01*
X20879786Y-44049890D01*
X20707820Y-43924951D01*
X20707115Y-43924591D01*
X20699054Y-43920485D01*
X20693827Y-43915548D01*
X20686956Y-43913433D01*
X20668764Y-43891877D01*
X20648259Y-43872512D01*
X20646530Y-43865533D01*
X20641893Y-43860038D01*
X20638242Y-43832066D01*
X20631463Y-43804692D01*
X20633781Y-43797887D01*
X20632851Y-43790755D01*
X20633216Y-43789983D01*
X33774500Y-43789983D01*
X33774500Y-44390001D01*
X33774501Y-44390019D01*
X33785000Y-44492796D01*
X33785001Y-44492799D01*
X33840185Y-44659331D01*
X33840187Y-44659336D01*
X33932289Y-44808657D01*
X34056346Y-44932714D01*
X34059182Y-44934463D01*
X34060717Y-44936170D01*
X34062011Y-44937193D01*
X34061836Y-44937414D01*
X34105905Y-44986411D01*
X34117126Y-45055374D01*
X34089282Y-45119456D01*
X34059182Y-45145537D01*
X34056346Y-45147285D01*
X33932289Y-45271342D01*
X33840187Y-45420663D01*
X33840186Y-45420666D01*
X33785001Y-45587203D01*
X33785001Y-45587204D01*
X33785000Y-45587204D01*
X33774500Y-45689983D01*
X33774500Y-46290001D01*
X33774501Y-46290019D01*
X33785000Y-46392796D01*
X33785001Y-46392799D01*
X33840185Y-46559331D01*
X33840186Y-46559334D01*
X33932288Y-46708656D01*
X34056344Y-46832712D01*
X34205666Y-46924814D01*
X34372203Y-46979999D01*
X34474991Y-46990500D01*
X35525008Y-46990499D01*
X35525016Y-46990498D01*
X35525019Y-46990498D01*
X35581302Y-46984748D01*
X35627797Y-46979999D01*
X35794334Y-46924814D01*
X35943656Y-46832712D01*
X36067712Y-46708656D01*
X36159814Y-46559334D01*
X36214999Y-46392797D01*
X36225500Y-46290009D01*
X36225499Y-45689992D01*
X36214999Y-45587203D01*
X36159814Y-45420666D01*
X36067712Y-45271344D01*
X35943656Y-45147288D01*
X35940819Y-45145538D01*
X35939283Y-45143830D01*
X35937989Y-45142807D01*
X35938163Y-45142585D01*
X35894096Y-45093594D01*
X35882872Y-45024632D01*
X35910713Y-44960549D01*
X35940817Y-44934462D01*
X35943656Y-44932712D01*
X36067712Y-44808656D01*
X36159814Y-44659334D01*
X36214999Y-44492797D01*
X36225500Y-44390009D01*
X36225499Y-43789992D01*
X36221157Y-43747491D01*
X36214999Y-43687203D01*
X36214998Y-43687200D01*
X36213922Y-43683954D01*
X36159814Y-43520666D01*
X36067712Y-43371344D01*
X35943656Y-43247288D01*
X35794334Y-43155186D01*
X35627797Y-43100001D01*
X35627795Y-43100000D01*
X35525010Y-43089500D01*
X34474998Y-43089500D01*
X34474980Y-43089501D01*
X34372203Y-43100000D01*
X34372200Y-43100001D01*
X34205668Y-43155185D01*
X34205663Y-43155187D01*
X34056342Y-43247289D01*
X33932289Y-43371342D01*
X33840187Y-43520663D01*
X33840185Y-43520668D01*
X33823802Y-43570109D01*
X33785001Y-43687203D01*
X33785001Y-43687204D01*
X33785000Y-43687204D01*
X33774500Y-43789983D01*
X20633216Y-43789983D01*
X20644902Y-43765250D01*
X20653999Y-43738556D01*
X20660358Y-43732541D01*
X20662702Y-43727583D01*
X20678507Y-43715379D01*
X20689674Y-43704820D01*
X20694244Y-43701965D01*
X20707816Y-43695051D01*
X20879792Y-43570104D01*
X21030104Y-43419792D01*
X21030106Y-43419788D01*
X21030109Y-43419786D01*
X21155048Y-43247820D01*
X21155047Y-43247820D01*
X21155051Y-43247816D01*
X21251557Y-43058412D01*
X21317246Y-42856243D01*
X21350500Y-42646287D01*
X21350500Y-42433713D01*
X21317246Y-42223757D01*
X21251557Y-42021588D01*
X21155051Y-41832184D01*
X21155049Y-41832181D01*
X21155048Y-41832179D01*
X21030109Y-41660213D01*
X20879786Y-41509890D01*
X20707819Y-41384951D01*
X20707818Y-41384950D01*
X20707816Y-41384949D01*
X20608775Y-41334485D01*
X20557979Y-41286510D01*
X20541184Y-41218689D01*
X20563721Y-41152554D01*
X20618437Y-41109103D01*
X20665070Y-41100000D01*
X20874626Y-41100000D01*
X20874628Y-41099999D01*
X20947540Y-41085496D01*
X20947544Y-41085494D01*
X21030239Y-41030239D01*
X21085494Y-40947544D01*
X21085496Y-40947540D01*
X21099999Y-40874628D01*
X21100000Y-40874626D01*
X21100000Y-40250000D01*
X20433012Y-40250000D01*
X20465925Y-40192993D01*
X20500000Y-40065826D01*
X20500000Y-39934174D01*
X20465925Y-39807007D01*
X20433012Y-39750000D01*
X21100000Y-39750000D01*
X21100000Y-39125373D01*
X21099999Y-39125371D01*
X21085496Y-39052459D01*
X21085494Y-39052455D01*
X21030239Y-38969760D01*
X20947544Y-38914505D01*
X20947540Y-38914503D01*
X20917113Y-38908451D01*
X20874627Y-38900000D01*
X20250000Y-38900000D01*
X20250000Y-39566988D01*
X20192993Y-39534075D01*
X20065826Y-39500000D01*
X19934174Y-39500000D01*
X19807007Y-39534075D01*
X19750000Y-39566988D01*
X19750000Y-38900000D01*
X19125373Y-38900000D01*
X19052459Y-38914503D01*
X19052455Y-38914505D01*
X18969760Y-38969760D01*
X18914505Y-39052455D01*
X18914503Y-39052459D01*
X18900000Y-39125371D01*
X18900000Y-39750000D01*
X19566988Y-39750000D01*
X19534075Y-39807007D01*
X19500000Y-39934174D01*
X19500000Y-40065826D01*
X19534075Y-40192993D01*
X19566988Y-40250000D01*
X18900000Y-40250000D01*
X18900000Y-40874628D01*
X18914503Y-40947540D01*
X18914505Y-40947544D01*
X18969760Y-41030239D01*
X19052455Y-41085494D01*
X19052459Y-41085496D01*
X19125371Y-41099999D01*
X19125374Y-41100000D01*
X19334930Y-41100000D01*
X19401969Y-41119685D01*
X19447724Y-41172489D01*
X19457668Y-41241647D01*
X19428643Y-41305203D01*
X19391225Y-41334485D01*
X19292180Y-41384951D01*
X19120213Y-41509890D01*
X18969890Y-41660213D01*
X18844951Y-41832179D01*
X18748444Y-42021585D01*
X18682753Y-42223760D01*
X18649500Y-42433713D01*
X500500Y-42433713D01*
X500500Y-38789983D01*
X33774500Y-38789983D01*
X33774500Y-39390001D01*
X33774501Y-39390019D01*
X33785000Y-39492796D01*
X33785001Y-39492799D01*
X33840185Y-39659331D01*
X33840187Y-39659336D01*
X33932289Y-39808657D01*
X34056346Y-39932714D01*
X34059182Y-39934463D01*
X34060717Y-39936170D01*
X34062011Y-39937193D01*
X34061836Y-39937414D01*
X34105905Y-39986411D01*
X34117126Y-40055374D01*
X34089282Y-40119456D01*
X34059182Y-40145537D01*
X34056346Y-40147285D01*
X33932289Y-40271342D01*
X33840187Y-40420663D01*
X33840185Y-40420668D01*
X33813897Y-40500000D01*
X33785001Y-40587203D01*
X33785001Y-40587204D01*
X33785000Y-40587204D01*
X33774500Y-40689983D01*
X33774500Y-41290001D01*
X33774501Y-41290019D01*
X33785000Y-41392796D01*
X33785001Y-41392799D01*
X33803184Y-41447671D01*
X33840186Y-41559334D01*
X33932288Y-41708656D01*
X34056344Y-41832712D01*
X34205666Y-41924814D01*
X34372203Y-41979999D01*
X34474991Y-41990500D01*
X35525008Y-41990499D01*
X35525016Y-41990498D01*
X35525019Y-41990498D01*
X35581302Y-41984748D01*
X35627797Y-41979999D01*
X35794334Y-41924814D01*
X35943656Y-41832712D01*
X36067712Y-41708656D01*
X36159814Y-41559334D01*
X36214999Y-41392797D01*
X36225500Y-41290009D01*
X36225499Y-40689992D01*
X36214999Y-40587203D01*
X36159814Y-40420666D01*
X36067712Y-40271344D01*
X35943656Y-40147288D01*
X35940819Y-40145538D01*
X35939283Y-40143830D01*
X35937989Y-40142807D01*
X35938163Y-40142585D01*
X35894096Y-40093594D01*
X35882872Y-40024632D01*
X35910713Y-39960549D01*
X35940817Y-39934462D01*
X35943656Y-39932712D01*
X36067712Y-39808656D01*
X36159814Y-39659334D01*
X36214999Y-39492797D01*
X36225500Y-39390009D01*
X36225499Y-38789992D01*
X36221157Y-38747491D01*
X36214999Y-38687203D01*
X36214998Y-38687200D01*
X36159814Y-38520666D01*
X36067712Y-38371344D01*
X35943656Y-38247288D01*
X35794334Y-38155186D01*
X35627797Y-38100001D01*
X35627795Y-38100000D01*
X35525010Y-38089500D01*
X34474998Y-38089500D01*
X34474980Y-38089501D01*
X34372203Y-38100000D01*
X34372200Y-38100001D01*
X34205668Y-38155185D01*
X34205663Y-38155187D01*
X34056342Y-38247289D01*
X33932289Y-38371342D01*
X33840187Y-38520663D01*
X33840186Y-38520666D01*
X33785001Y-38687203D01*
X33785001Y-38687204D01*
X33785000Y-38687204D01*
X33774500Y-38789983D01*
X500500Y-38789983D01*
X500500Y-37433713D01*
X38649500Y-37433713D01*
X38649500Y-37646286D01*
X38682753Y-37856239D01*
X38748444Y-38058414D01*
X38844951Y-38247820D01*
X38969890Y-38419786D01*
X39120213Y-38570109D01*
X39292182Y-38695050D01*
X39300946Y-38699516D01*
X39351742Y-38747491D01*
X39368536Y-38815312D01*
X39345998Y-38881447D01*
X39300946Y-38920484D01*
X39292182Y-38924949D01*
X39120213Y-39049890D01*
X38969890Y-39200213D01*
X38844951Y-39372179D01*
X38748444Y-39561585D01*
X38682753Y-39763760D01*
X38675642Y-39808657D01*
X38649500Y-39973713D01*
X38649500Y-40186287D01*
X38682754Y-40396243D01*
X38744801Y-40587204D01*
X38748444Y-40598414D01*
X38844951Y-40787820D01*
X38969890Y-40959786D01*
X39120213Y-41110109D01*
X39292179Y-41235048D01*
X39292181Y-41235049D01*
X39292184Y-41235051D01*
X39481588Y-41331557D01*
X39683757Y-41397246D01*
X39893713Y-41430500D01*
X39893714Y-41430500D01*
X40106286Y-41430500D01*
X40106287Y-41430500D01*
X40316243Y-41397246D01*
X40518412Y-41331557D01*
X40707816Y-41235051D01*
X40730337Y-41218689D01*
X40879786Y-41110109D01*
X40879788Y-41110106D01*
X40879792Y-41110104D01*
X41030104Y-40959792D01*
X41030106Y-40959788D01*
X41030109Y-40959786D01*
X41155048Y-40787820D01*
X41155047Y-40787820D01*
X41155051Y-40787816D01*
X41251557Y-40598412D01*
X41317246Y-40396243D01*
X41350500Y-40186287D01*
X41350500Y-39973713D01*
X41317246Y-39763757D01*
X41251557Y-39561588D01*
X41155051Y-39372184D01*
X41155049Y-39372181D01*
X41155048Y-39372179D01*
X41030109Y-39200213D01*
X40879786Y-39049890D01*
X40707820Y-38924951D01*
X40707115Y-38924591D01*
X40699054Y-38920485D01*
X40648259Y-38872512D01*
X40631463Y-38804692D01*
X40653999Y-38738556D01*
X40699054Y-38699515D01*
X40707816Y-38695051D01*
X40794138Y-38632335D01*
X40879786Y-38570109D01*
X40879788Y-38570106D01*
X40879792Y-38570104D01*
X41030104Y-38419792D01*
X41030106Y-38419788D01*
X41030109Y-38419786D01*
X41155048Y-38247820D01*
X41155047Y-38247820D01*
X41155051Y-38247816D01*
X41251557Y-38058412D01*
X41317246Y-37856243D01*
X41350500Y-37646287D01*
X41350500Y-37433713D01*
X41317246Y-37223757D01*
X41251557Y-37021588D01*
X41155051Y-36832184D01*
X41155049Y-36832181D01*
X41155048Y-36832179D01*
X41030109Y-36660213D01*
X40879786Y-36509890D01*
X40707819Y-36384951D01*
X40707818Y-36384950D01*
X40707816Y-36384949D01*
X40608775Y-36334485D01*
X40557979Y-36286510D01*
X40541184Y-36218689D01*
X40563721Y-36152554D01*
X40618437Y-36109103D01*
X40665070Y-36100000D01*
X40874626Y-36100000D01*
X40874628Y-36099999D01*
X40947540Y-36085496D01*
X40947544Y-36085494D01*
X41030239Y-36030239D01*
X41085494Y-35947544D01*
X41085496Y-35947540D01*
X41099999Y-35874628D01*
X41100000Y-35874626D01*
X41100000Y-35250000D01*
X40433012Y-35250000D01*
X40465925Y-35192993D01*
X40500000Y-35065826D01*
X40500000Y-34934174D01*
X40465925Y-34807007D01*
X40433012Y-34750000D01*
X41100000Y-34750000D01*
X41100000Y-34125373D01*
X41099999Y-34125371D01*
X41085496Y-34052459D01*
X41085494Y-34052455D01*
X41030239Y-33969760D01*
X40947544Y-33914505D01*
X40947540Y-33914503D01*
X40874627Y-33900000D01*
X40250000Y-33900000D01*
X40250000Y-34566988D01*
X40192993Y-34534075D01*
X40065826Y-34500000D01*
X39934174Y-34500000D01*
X39807007Y-34534075D01*
X39750000Y-34566988D01*
X39750000Y-33900000D01*
X39125373Y-33900000D01*
X39052459Y-33914503D01*
X39052455Y-33914505D01*
X38969760Y-33969760D01*
X38914505Y-34052455D01*
X38914503Y-34052459D01*
X38900000Y-34125371D01*
X38900000Y-34750000D01*
X39566988Y-34750000D01*
X39534075Y-34807007D01*
X39500000Y-34934174D01*
X39500000Y-35065826D01*
X39534075Y-35192993D01*
X39566988Y-35250000D01*
X38900000Y-35250000D01*
X38900000Y-35874628D01*
X38914503Y-35947540D01*
X38914505Y-35947544D01*
X38969760Y-36030239D01*
X39052455Y-36085494D01*
X39052459Y-36085496D01*
X39125371Y-36099999D01*
X39125374Y-36100000D01*
X39334930Y-36100000D01*
X39401969Y-36119685D01*
X39447724Y-36172489D01*
X39457668Y-36241647D01*
X39428643Y-36305203D01*
X39391225Y-36334485D01*
X39292180Y-36384951D01*
X39120213Y-36509890D01*
X38969890Y-36660213D01*
X38844951Y-36832179D01*
X38748444Y-37021585D01*
X38682753Y-37223760D01*
X38649500Y-37433713D01*
X500500Y-37433713D01*
X500500Y-32433713D01*
X18649500Y-32433713D01*
X18649500Y-32646286D01*
X18682753Y-32856239D01*
X18748444Y-33058414D01*
X18844951Y-33247820D01*
X18969890Y-33419786D01*
X19120213Y-33570109D01*
X19292182Y-33695050D01*
X19300946Y-33699516D01*
X19351742Y-33747491D01*
X19368536Y-33815312D01*
X19345998Y-33881447D01*
X19300946Y-33920484D01*
X19292182Y-33924949D01*
X19120213Y-34049890D01*
X18969890Y-34200213D01*
X18844951Y-34372179D01*
X18748444Y-34561585D01*
X18682753Y-34763760D01*
X18675642Y-34808657D01*
X18649500Y-34973713D01*
X18649500Y-35186287D01*
X18682754Y-35396243D01*
X18744801Y-35587204D01*
X18748444Y-35598414D01*
X18844951Y-35787820D01*
X18969890Y-35959786D01*
X19120213Y-36110109D01*
X19292179Y-36235048D01*
X19292181Y-36235049D01*
X19292184Y-36235051D01*
X19481588Y-36331557D01*
X19683757Y-36397246D01*
X19893713Y-36430500D01*
X19893714Y-36430500D01*
X20106286Y-36430500D01*
X20106287Y-36430500D01*
X20316243Y-36397246D01*
X20518412Y-36331557D01*
X20707816Y-36235051D01*
X20730337Y-36218689D01*
X20879786Y-36110109D01*
X20879788Y-36110106D01*
X20879792Y-36110104D01*
X21030104Y-35959792D01*
X21030106Y-35959788D01*
X21030109Y-35959786D01*
X21155048Y-35787820D01*
X21155047Y-35787820D01*
X21155051Y-35787816D01*
X21251557Y-35598412D01*
X21317246Y-35396243D01*
X21350500Y-35186287D01*
X21350500Y-34973713D01*
X21317246Y-34763757D01*
X21251557Y-34561588D01*
X21155051Y-34372184D01*
X21155049Y-34372181D01*
X21155048Y-34372179D01*
X21030109Y-34200213D01*
X20879786Y-34049890D01*
X20707820Y-33924951D01*
X20707115Y-33924591D01*
X20699054Y-33920485D01*
X20693827Y-33915548D01*
X20686956Y-33913433D01*
X20668764Y-33891877D01*
X20648259Y-33872512D01*
X20646530Y-33865533D01*
X20641893Y-33860038D01*
X20638242Y-33832066D01*
X20631463Y-33804692D01*
X20633781Y-33797887D01*
X20632851Y-33790755D01*
X20633216Y-33789983D01*
X33774500Y-33789983D01*
X33774500Y-34390001D01*
X33774501Y-34390019D01*
X33785000Y-34492796D01*
X33785001Y-34492799D01*
X33840185Y-34659331D01*
X33840187Y-34659336D01*
X33932289Y-34808657D01*
X34056346Y-34932714D01*
X34059182Y-34934463D01*
X34060717Y-34936170D01*
X34062011Y-34937193D01*
X34061836Y-34937414D01*
X34105905Y-34986411D01*
X34117126Y-35055374D01*
X34089282Y-35119456D01*
X34059182Y-35145537D01*
X34056346Y-35147285D01*
X33932289Y-35271342D01*
X33840187Y-35420663D01*
X33840185Y-35420668D01*
X33813897Y-35500000D01*
X33785001Y-35587203D01*
X33785001Y-35587204D01*
X33785000Y-35587204D01*
X33774500Y-35689983D01*
X33774500Y-36290001D01*
X33774501Y-36290019D01*
X33785000Y-36392796D01*
X33785001Y-36392799D01*
X33803184Y-36447671D01*
X33840186Y-36559334D01*
X33932288Y-36708656D01*
X34056344Y-36832712D01*
X34205666Y-36924814D01*
X34372203Y-36979999D01*
X34474991Y-36990500D01*
X35525008Y-36990499D01*
X35525016Y-36990498D01*
X35525019Y-36990498D01*
X35581302Y-36984748D01*
X35627797Y-36979999D01*
X35794334Y-36924814D01*
X35943656Y-36832712D01*
X36067712Y-36708656D01*
X36159814Y-36559334D01*
X36214999Y-36392797D01*
X36225500Y-36290009D01*
X36225499Y-35689992D01*
X36214999Y-35587203D01*
X36159814Y-35420666D01*
X36067712Y-35271344D01*
X35943656Y-35147288D01*
X35940819Y-35145538D01*
X35939283Y-35143830D01*
X35937989Y-35142807D01*
X35938163Y-35142585D01*
X35894096Y-35093594D01*
X35882872Y-35024632D01*
X35910713Y-34960549D01*
X35940817Y-34934462D01*
X35943656Y-34932712D01*
X36067712Y-34808656D01*
X36159814Y-34659334D01*
X36214999Y-34492797D01*
X36225500Y-34390009D01*
X36225499Y-34086673D01*
X36225499Y-33789999D01*
X36225498Y-33789980D01*
X36214999Y-33687203D01*
X36214998Y-33687200D01*
X36213922Y-33683954D01*
X36159814Y-33520666D01*
X36067712Y-33371344D01*
X35943656Y-33247288D01*
X35794334Y-33155186D01*
X35627797Y-33100001D01*
X35627795Y-33100000D01*
X35525010Y-33089500D01*
X34474998Y-33089500D01*
X34474980Y-33089501D01*
X34372203Y-33100000D01*
X34372200Y-33100001D01*
X34205668Y-33155185D01*
X34205663Y-33155187D01*
X34056342Y-33247289D01*
X33932289Y-33371342D01*
X33840187Y-33520663D01*
X33840185Y-33520668D01*
X33823802Y-33570109D01*
X33785001Y-33687203D01*
X33785001Y-33687204D01*
X33785000Y-33687204D01*
X33774500Y-33789983D01*
X20633216Y-33789983D01*
X20644902Y-33765250D01*
X20653999Y-33738556D01*
X20660358Y-33732541D01*
X20662702Y-33727583D01*
X20678507Y-33715379D01*
X20689674Y-33704820D01*
X20694244Y-33701965D01*
X20707816Y-33695051D01*
X20879792Y-33570104D01*
X21030104Y-33419792D01*
X21030106Y-33419788D01*
X21030109Y-33419786D01*
X21155048Y-33247820D01*
X21155047Y-33247820D01*
X21155051Y-33247816D01*
X21251557Y-33058412D01*
X21317246Y-32856243D01*
X21350500Y-32646287D01*
X21350500Y-32433713D01*
X21317246Y-32223757D01*
X21251557Y-32021588D01*
X21155051Y-31832184D01*
X21155049Y-31832181D01*
X21155048Y-31832179D01*
X21030109Y-31660213D01*
X20879786Y-31509890D01*
X20707819Y-31384951D01*
X20707818Y-31384950D01*
X20707816Y-31384949D01*
X20608775Y-31334485D01*
X20557979Y-31286510D01*
X20541184Y-31218689D01*
X20563721Y-31152554D01*
X20618437Y-31109103D01*
X20665070Y-31100000D01*
X20874626Y-31100000D01*
X20874628Y-31099999D01*
X20947540Y-31085496D01*
X20947544Y-31085494D01*
X21030239Y-31030239D01*
X21085494Y-30947544D01*
X21085496Y-30947540D01*
X21099999Y-30874628D01*
X21100000Y-30874626D01*
X21100000Y-30250000D01*
X20433012Y-30250000D01*
X20465925Y-30192993D01*
X20500000Y-30065826D01*
X20500000Y-29934174D01*
X20465925Y-29807007D01*
X20433012Y-29750000D01*
X21100000Y-29750000D01*
X21100000Y-29125373D01*
X21099999Y-29125371D01*
X21085496Y-29052459D01*
X21085494Y-29052455D01*
X21030239Y-28969760D01*
X20947544Y-28914505D01*
X20947540Y-28914503D01*
X20917113Y-28908451D01*
X20874627Y-28900000D01*
X20250000Y-28900000D01*
X20250000Y-29566988D01*
X20192993Y-29534075D01*
X20065826Y-29500000D01*
X19934174Y-29500000D01*
X19807007Y-29534075D01*
X19750000Y-29566988D01*
X19750000Y-28900000D01*
X19125373Y-28900000D01*
X19052459Y-28914503D01*
X19052455Y-28914505D01*
X18969760Y-28969760D01*
X18914505Y-29052455D01*
X18914503Y-29052459D01*
X18900000Y-29125371D01*
X18900000Y-29750000D01*
X19566988Y-29750000D01*
X19534075Y-29807007D01*
X19500000Y-29934174D01*
X19500000Y-30065826D01*
X19534075Y-30192993D01*
X19566988Y-30250000D01*
X18900000Y-30250000D01*
X18900000Y-30874628D01*
X18914503Y-30947540D01*
X18914505Y-30947544D01*
X18969760Y-31030239D01*
X19052455Y-31085494D01*
X19052459Y-31085496D01*
X19125371Y-31099999D01*
X19125374Y-31100000D01*
X19334930Y-31100000D01*
X19401969Y-31119685D01*
X19447724Y-31172489D01*
X19457668Y-31241647D01*
X19428643Y-31305203D01*
X19391225Y-31334485D01*
X19292180Y-31384951D01*
X19120213Y-31509890D01*
X18969890Y-31660213D01*
X18844951Y-31832179D01*
X18748444Y-32021585D01*
X18682753Y-32223760D01*
X18649500Y-32433713D01*
X500500Y-32433713D01*
X500500Y-29402155D01*
X13950000Y-29402155D01*
X13950000Y-29750000D01*
X14684314Y-29750000D01*
X14679920Y-29754394D01*
X14627259Y-29845606D01*
X14600000Y-29947339D01*
X14600000Y-30052661D01*
X14627259Y-30154394D01*
X14679920Y-30245606D01*
X14684314Y-30250000D01*
X13950000Y-30250000D01*
X13950000Y-30597844D01*
X13956401Y-30657372D01*
X13956403Y-30657379D01*
X14006645Y-30792086D01*
X14006649Y-30792093D01*
X14092809Y-30907187D01*
X14092812Y-30907190D01*
X14207906Y-30993350D01*
X14207913Y-30993354D01*
X14342620Y-31043596D01*
X14342627Y-31043598D01*
X14402155Y-31049999D01*
X14402172Y-31050000D01*
X14750000Y-31050000D01*
X14750000Y-30315686D01*
X14754394Y-30320080D01*
X14845606Y-30372741D01*
X14947339Y-30400000D01*
X15052661Y-30400000D01*
X15154394Y-30372741D01*
X15245606Y-30320080D01*
X15250000Y-30315686D01*
X15250000Y-31050000D01*
X15597828Y-31050000D01*
X15597844Y-31049999D01*
X15657372Y-31043598D01*
X15657379Y-31043596D01*
X15792086Y-30993354D01*
X15792093Y-30993350D01*
X15907187Y-30907190D01*
X15907190Y-30907187D01*
X15993350Y-30792093D01*
X15993354Y-30792086D01*
X16043596Y-30657379D01*
X16043598Y-30657372D01*
X16049999Y-30597844D01*
X16050000Y-30597827D01*
X16050000Y-30250000D01*
X15315686Y-30250000D01*
X15320080Y-30245606D01*
X15372741Y-30154394D01*
X15400000Y-30052661D01*
X15400000Y-29947339D01*
X15372741Y-29845606D01*
X15320080Y-29754394D01*
X15315686Y-29750000D01*
X16050000Y-29750000D01*
X16050000Y-29402172D01*
X16049999Y-29402155D01*
X16043598Y-29342627D01*
X16043596Y-29342620D01*
X15993354Y-29207913D01*
X15993352Y-29207911D01*
X15982636Y-29193595D01*
X15982635Y-29193592D01*
X15907190Y-29092812D01*
X15907187Y-29092809D01*
X15792093Y-29006649D01*
X15792086Y-29006645D01*
X15657379Y-28956403D01*
X15657372Y-28956401D01*
X15597844Y-28950000D01*
X15250000Y-28950000D01*
X15250000Y-29684314D01*
X15245606Y-29679920D01*
X15154394Y-29627259D01*
X15052661Y-29600000D01*
X14947339Y-29600000D01*
X14845606Y-29627259D01*
X14754394Y-29679920D01*
X14750000Y-29684314D01*
X14750000Y-28950000D01*
X14402155Y-28950000D01*
X14342627Y-28956401D01*
X14342620Y-28956403D01*
X14207913Y-29006645D01*
X14207906Y-29006649D01*
X14092812Y-29092809D01*
X14092809Y-29092812D01*
X14006649Y-29207906D01*
X14006645Y-29207913D01*
X13956403Y-29342620D01*
X13956401Y-29342627D01*
X13950000Y-29402155D01*
X500500Y-29402155D01*
X500500Y-28789983D01*
X33774500Y-28789983D01*
X33774500Y-29390001D01*
X33774501Y-29390019D01*
X33785000Y-29492796D01*
X33785001Y-29492799D01*
X33840185Y-29659331D01*
X33840187Y-29659336D01*
X33932289Y-29808657D01*
X34056346Y-29932714D01*
X34059182Y-29934463D01*
X34060717Y-29936170D01*
X34062011Y-29937193D01*
X34061836Y-29937414D01*
X34105905Y-29986411D01*
X34117126Y-30055374D01*
X34089282Y-30119456D01*
X34059182Y-30145537D01*
X34056346Y-30147285D01*
X33932289Y-30271342D01*
X33840187Y-30420663D01*
X33840185Y-30420668D01*
X33813897Y-30500000D01*
X33785001Y-30587203D01*
X33785001Y-30587204D01*
X33785000Y-30587204D01*
X33774500Y-30689983D01*
X33774500Y-31290001D01*
X33774501Y-31290019D01*
X33785000Y-31392796D01*
X33785001Y-31392799D01*
X33803184Y-31447671D01*
X33840186Y-31559334D01*
X33932288Y-31708656D01*
X34056344Y-31832712D01*
X34205666Y-31924814D01*
X34372203Y-31979999D01*
X34474991Y-31990500D01*
X35525008Y-31990499D01*
X35525016Y-31990498D01*
X35525019Y-31990498D01*
X35581302Y-31984748D01*
X35627797Y-31979999D01*
X35794334Y-31924814D01*
X35943656Y-31832712D01*
X36067712Y-31708656D01*
X36159814Y-31559334D01*
X36214999Y-31392797D01*
X36225500Y-31290009D01*
X36225499Y-30689992D01*
X36214999Y-30587203D01*
X36159814Y-30420666D01*
X36067712Y-30271344D01*
X35943656Y-30147288D01*
X35940819Y-30145538D01*
X35939283Y-30143830D01*
X35937989Y-30142807D01*
X35938163Y-30142585D01*
X35894096Y-30093594D01*
X35882872Y-30024632D01*
X35910713Y-29960549D01*
X35940817Y-29934462D01*
X35943656Y-29932712D01*
X36067712Y-29808656D01*
X36159814Y-29659334D01*
X36214999Y-29492797D01*
X36225500Y-29390009D01*
X36225499Y-28789992D01*
X36221157Y-28747491D01*
X36214999Y-28687203D01*
X36214998Y-28687200D01*
X36159814Y-28520666D01*
X36067712Y-28371344D01*
X35943656Y-28247288D01*
X35794334Y-28155186D01*
X35627797Y-28100001D01*
X35627795Y-28100000D01*
X35525010Y-28089500D01*
X34474998Y-28089500D01*
X34474980Y-28089501D01*
X34372203Y-28100000D01*
X34372200Y-28100001D01*
X34205668Y-28155185D01*
X34205663Y-28155187D01*
X34056342Y-28247289D01*
X33932289Y-28371342D01*
X33840187Y-28520663D01*
X33840186Y-28520666D01*
X33785001Y-28687203D01*
X33785001Y-28687204D01*
X33785000Y-28687204D01*
X33774500Y-28789983D01*
X500500Y-28789983D01*
X500500Y-23412619D01*
X1750000Y-23412619D01*
X1750000Y-24750000D01*
X2763498Y-24750000D01*
X2750000Y-24852527D01*
X2750000Y-25147473D01*
X2763498Y-25250000D01*
X1750001Y-25250000D01*
X1750001Y-26587381D01*
X1756127Y-26696487D01*
X1756128Y-26696495D01*
X1804887Y-26954192D01*
X1804889Y-26954202D01*
X1891519Y-27201775D01*
X2014076Y-27433663D01*
X2014080Y-27433669D01*
X2169829Y-27644703D01*
X2355296Y-27830170D01*
X2566330Y-27985919D01*
X2566336Y-27985923D01*
X2798224Y-28108480D01*
X3045797Y-28195110D01*
X3045807Y-28195112D01*
X3303503Y-28243871D01*
X3303510Y-28243872D01*
X3412627Y-28249999D01*
X4749999Y-28249999D01*
X4750000Y-28249998D01*
X4750000Y-27236502D01*
X4852527Y-27250000D01*
X5147473Y-27250000D01*
X5250000Y-27236502D01*
X5250000Y-28249999D01*
X6587362Y-28249999D01*
X6587381Y-28249998D01*
X6696487Y-28243872D01*
X6696495Y-28243871D01*
X6954192Y-28195112D01*
X6954202Y-28195110D01*
X7201775Y-28108480D01*
X7433663Y-27985923D01*
X7433669Y-27985919D01*
X7644703Y-27830170D01*
X7830170Y-27644703D01*
X7985919Y-27433669D01*
X7985923Y-27433663D01*
X8108480Y-27201775D01*
X8195110Y-26954202D01*
X8195112Y-26954192D01*
X8243871Y-26696496D01*
X8243872Y-26696489D01*
X8249999Y-26587380D01*
X8250000Y-26587364D01*
X8250000Y-26397648D01*
X13699500Y-26397648D01*
X13699500Y-26602351D01*
X13731522Y-26804534D01*
X13794781Y-26999223D01*
X13887715Y-27181613D01*
X14008028Y-27347213D01*
X14152786Y-27491971D01*
X14307749Y-27604556D01*
X14318390Y-27612287D01*
X14385117Y-27646286D01*
X14500776Y-27705218D01*
X14500778Y-27705218D01*
X14500781Y-27705220D01*
X14605137Y-27739127D01*
X14695465Y-27768477D01*
X14796557Y-27784488D01*
X14897648Y-27800500D01*
X14897649Y-27800500D01*
X15102351Y-27800500D01*
X15102352Y-27800500D01*
X15304534Y-27768477D01*
X15499219Y-27705220D01*
X15681610Y-27612287D01*
X15774590Y-27544732D01*
X15847213Y-27491971D01*
X15847215Y-27491968D01*
X15847219Y-27491966D01*
X15905472Y-27433713D01*
X38649500Y-27433713D01*
X38649500Y-27646287D01*
X38682754Y-27856243D01*
X38724888Y-27985919D01*
X38748444Y-28058414D01*
X38844951Y-28247820D01*
X38969890Y-28419786D01*
X39120213Y-28570109D01*
X39292182Y-28695050D01*
X39300946Y-28699516D01*
X39351742Y-28747491D01*
X39368536Y-28815312D01*
X39345998Y-28881447D01*
X39300946Y-28920484D01*
X39292182Y-28924949D01*
X39120213Y-29049890D01*
X38969890Y-29200213D01*
X38844951Y-29372179D01*
X38748444Y-29561585D01*
X38682753Y-29763760D01*
X38649500Y-29973713D01*
X38649500Y-30186286D01*
X38679031Y-30372741D01*
X38682754Y-30396243D01*
X38748258Y-30597844D01*
X38748444Y-30598414D01*
X38844951Y-30787820D01*
X38969890Y-30959786D01*
X39120213Y-31110109D01*
X39292179Y-31235048D01*
X39292181Y-31235049D01*
X39292184Y-31235051D01*
X39481588Y-31331557D01*
X39683757Y-31397246D01*
X39893713Y-31430500D01*
X39893714Y-31430500D01*
X40106286Y-31430500D01*
X40106287Y-31430500D01*
X40316243Y-31397246D01*
X40518412Y-31331557D01*
X40707816Y-31235051D01*
X40730337Y-31218689D01*
X40879786Y-31110109D01*
X40879788Y-31110106D01*
X40879792Y-31110104D01*
X41030104Y-30959792D01*
X41030106Y-30959788D01*
X41030109Y-30959786D01*
X41155048Y-30787820D01*
X41155047Y-30787820D01*
X41155051Y-30787816D01*
X41251557Y-30598412D01*
X41317246Y-30396243D01*
X41350500Y-30186287D01*
X41350500Y-29973713D01*
X41317246Y-29763757D01*
X41251557Y-29561588D01*
X41155051Y-29372184D01*
X41155049Y-29372181D01*
X41155048Y-29372179D01*
X41030109Y-29200213D01*
X40879786Y-29049890D01*
X40707820Y-28924951D01*
X40707115Y-28924591D01*
X40699054Y-28920485D01*
X40648259Y-28872512D01*
X40631463Y-28804692D01*
X40653999Y-28738556D01*
X40699054Y-28699515D01*
X40707816Y-28695051D01*
X40794138Y-28632335D01*
X40879786Y-28570109D01*
X40879788Y-28570106D01*
X40879792Y-28570104D01*
X41030104Y-28419792D01*
X41030106Y-28419788D01*
X41030109Y-28419786D01*
X41155048Y-28247820D01*
X41155047Y-28247820D01*
X41155051Y-28247816D01*
X41251557Y-28058412D01*
X41317246Y-27856243D01*
X41350500Y-27646287D01*
X41350500Y-27433713D01*
X41317246Y-27223757D01*
X41251557Y-27021588D01*
X41155051Y-26832184D01*
X41155049Y-26832181D01*
X41155048Y-26832179D01*
X41030109Y-26660213D01*
X40879786Y-26509890D01*
X40707819Y-26384951D01*
X40707818Y-26384950D01*
X40707816Y-26384949D01*
X40608775Y-26334485D01*
X40557979Y-26286510D01*
X40541184Y-26218689D01*
X40563721Y-26152554D01*
X40618437Y-26109103D01*
X40665070Y-26100000D01*
X40874626Y-26100000D01*
X40874628Y-26099999D01*
X40947540Y-26085496D01*
X40947544Y-26085494D01*
X41030239Y-26030239D01*
X41085494Y-25947544D01*
X41085496Y-25947540D01*
X41099999Y-25874628D01*
X41100000Y-25874626D01*
X41100000Y-25250000D01*
X40433012Y-25250000D01*
X40465925Y-25192993D01*
X40500000Y-25065826D01*
X40500000Y-24934174D01*
X40465925Y-24807007D01*
X40433012Y-24750000D01*
X41100000Y-24750000D01*
X41100000Y-24125373D01*
X41099999Y-24125371D01*
X41085496Y-24052459D01*
X41085494Y-24052455D01*
X41030239Y-23969760D01*
X40947544Y-23914505D01*
X40947540Y-23914503D01*
X40874627Y-23900000D01*
X40250000Y-23900000D01*
X40250000Y-24566988D01*
X40192993Y-24534075D01*
X40065826Y-24500000D01*
X39934174Y-24500000D01*
X39807007Y-24534075D01*
X39750000Y-24566988D01*
X39750000Y-23900000D01*
X39125373Y-23900000D01*
X39052459Y-23914503D01*
X39052455Y-23914505D01*
X38969760Y-23969760D01*
X38914505Y-24052455D01*
X38914503Y-24052459D01*
X38900000Y-24125371D01*
X38900000Y-24750000D01*
X39566988Y-24750000D01*
X39534075Y-24807007D01*
X39500000Y-24934174D01*
X39500000Y-25065826D01*
X39534075Y-25192993D01*
X39566988Y-25250000D01*
X38900000Y-25250000D01*
X38900000Y-25874628D01*
X38914503Y-25947540D01*
X38914505Y-25947544D01*
X38969760Y-26030239D01*
X39052455Y-26085494D01*
X39052459Y-26085496D01*
X39125371Y-26099999D01*
X39125374Y-26100000D01*
X39334930Y-26100000D01*
X39401969Y-26119685D01*
X39447724Y-26172489D01*
X39457668Y-26241647D01*
X39428643Y-26305203D01*
X39391225Y-26334485D01*
X39292180Y-26384951D01*
X39120213Y-26509890D01*
X38969890Y-26660213D01*
X38844951Y-26832179D01*
X38748444Y-27021585D01*
X38682753Y-27223760D01*
X38663199Y-27347219D01*
X38649500Y-27433713D01*
X15905472Y-27433713D01*
X15991966Y-27347219D01*
X16112287Y-27181610D01*
X16205220Y-26999219D01*
X16268477Y-26804534D01*
X16300500Y-26602352D01*
X16300500Y-26397648D01*
X16283453Y-26290019D01*
X16268477Y-26195465D01*
X16205218Y-26000776D01*
X16171503Y-25934607D01*
X16112287Y-25818390D01*
X16090074Y-25787816D01*
X15991971Y-25652786D01*
X15847213Y-25508028D01*
X15681613Y-25387715D01*
X15681612Y-25387714D01*
X15681610Y-25387713D01*
X15624653Y-25358691D01*
X15499223Y-25294781D01*
X15304534Y-25231522D01*
X15129995Y-25203878D01*
X15102352Y-25199500D01*
X14897648Y-25199500D01*
X14873329Y-25203351D01*
X14695465Y-25231522D01*
X14500776Y-25294781D01*
X14318386Y-25387715D01*
X14152786Y-25508028D01*
X14008028Y-25652786D01*
X13887715Y-25818386D01*
X13794781Y-26000776D01*
X13731522Y-26195465D01*
X13699500Y-26397648D01*
X8250000Y-26397648D01*
X8250000Y-25250000D01*
X7236502Y-25250000D01*
X7250000Y-25147473D01*
X7250000Y-24852527D01*
X7236502Y-24750000D01*
X8249999Y-24750000D01*
X8249999Y-23412638D01*
X8249998Y-23412618D01*
X8243872Y-23303512D01*
X8243871Y-23303504D01*
X8195112Y-23045807D01*
X8195110Y-23045797D01*
X8108480Y-22798224D01*
X7985923Y-22566336D01*
X7985915Y-22566323D01*
X7938795Y-22502477D01*
X7938793Y-22502475D01*
X7888044Y-22433713D01*
X18649500Y-22433713D01*
X18649500Y-22646286D01*
X18673564Y-22798224D01*
X18682754Y-22856243D01*
X18744347Y-23045807D01*
X18748444Y-23058414D01*
X18844951Y-23247820D01*
X18969890Y-23419786D01*
X19120213Y-23570109D01*
X19292182Y-23695050D01*
X19300946Y-23699516D01*
X19351742Y-23747491D01*
X19368536Y-23815312D01*
X19345998Y-23881447D01*
X19300946Y-23920484D01*
X19292182Y-23924949D01*
X19120213Y-24049890D01*
X18969890Y-24200213D01*
X18844951Y-24372179D01*
X18748444Y-24561585D01*
X18682753Y-24763760D01*
X18675642Y-24808657D01*
X18649500Y-24973713D01*
X18649500Y-25186287D01*
X18682754Y-25396243D01*
X18744801Y-25587204D01*
X18748444Y-25598414D01*
X18844951Y-25787820D01*
X18969890Y-25959786D01*
X19120213Y-26110109D01*
X19292179Y-26235048D01*
X19292181Y-26235049D01*
X19292184Y-26235051D01*
X19481588Y-26331557D01*
X19683757Y-26397246D01*
X19893713Y-26430500D01*
X19893714Y-26430500D01*
X20106286Y-26430500D01*
X20106287Y-26430500D01*
X20316243Y-26397246D01*
X20518412Y-26331557D01*
X20707816Y-26235051D01*
X20730337Y-26218689D01*
X20879786Y-26110109D01*
X20879788Y-26110106D01*
X20879792Y-26110104D01*
X21030104Y-25959792D01*
X21030106Y-25959788D01*
X21030109Y-25959786D01*
X21155048Y-25787820D01*
X21155047Y-25787820D01*
X21155051Y-25787816D01*
X21251557Y-25598412D01*
X21317246Y-25396243D01*
X21350500Y-25186287D01*
X21350500Y-24973713D01*
X21317246Y-24763757D01*
X21251557Y-24561588D01*
X21155051Y-24372184D01*
X21155049Y-24372181D01*
X21155048Y-24372179D01*
X21030109Y-24200213D01*
X20879786Y-24049890D01*
X20707820Y-23924951D01*
X20707115Y-23924591D01*
X20699054Y-23920485D01*
X20693827Y-23915548D01*
X20686956Y-23913433D01*
X20668764Y-23891877D01*
X20648259Y-23872512D01*
X20646530Y-23865533D01*
X20641893Y-23860038D01*
X20638242Y-23832066D01*
X20631463Y-23804692D01*
X20633781Y-23797887D01*
X20632851Y-23790755D01*
X20633216Y-23789983D01*
X33774500Y-23789983D01*
X33774500Y-24390001D01*
X33774501Y-24390019D01*
X33785000Y-24492796D01*
X33785001Y-24492799D01*
X33840185Y-24659331D01*
X33840187Y-24659336D01*
X33932289Y-24808657D01*
X34056346Y-24932714D01*
X34059182Y-24934463D01*
X34060717Y-24936170D01*
X34062011Y-24937193D01*
X34061836Y-24937414D01*
X34105905Y-24986411D01*
X34117126Y-25055374D01*
X34089282Y-25119456D01*
X34059182Y-25145537D01*
X34056346Y-25147285D01*
X33932289Y-25271342D01*
X33840187Y-25420663D01*
X33840185Y-25420668D01*
X33813897Y-25500000D01*
X33785001Y-25587203D01*
X33785001Y-25587204D01*
X33785000Y-25587204D01*
X33774500Y-25689983D01*
X33774500Y-26290001D01*
X33774501Y-26290019D01*
X33785000Y-26392796D01*
X33785001Y-26392797D01*
X33840186Y-26559334D01*
X33932288Y-26708656D01*
X34056344Y-26832712D01*
X34205666Y-26924814D01*
X34372203Y-26979999D01*
X34474991Y-26990500D01*
X35525008Y-26990499D01*
X35525016Y-26990498D01*
X35525019Y-26990498D01*
X35581302Y-26984748D01*
X35627797Y-26979999D01*
X35794334Y-26924814D01*
X35943656Y-26832712D01*
X36067712Y-26708656D01*
X36159814Y-26559334D01*
X36214999Y-26392797D01*
X36225500Y-26290009D01*
X36225499Y-25689992D01*
X36221698Y-25652786D01*
X36214999Y-25587203D01*
X36214998Y-25587200D01*
X36188763Y-25508028D01*
X36159814Y-25420666D01*
X36067712Y-25271344D01*
X35943656Y-25147288D01*
X35940819Y-25145538D01*
X35939283Y-25143830D01*
X35937989Y-25142807D01*
X35938163Y-25142585D01*
X35894096Y-25093594D01*
X35882872Y-25024632D01*
X35910713Y-24960549D01*
X35940817Y-24934462D01*
X35943656Y-24932712D01*
X36067712Y-24808656D01*
X36159814Y-24659334D01*
X36214999Y-24492797D01*
X36225500Y-24390009D01*
X36225499Y-24086673D01*
X36225499Y-23789999D01*
X36225498Y-23789980D01*
X36214999Y-23687203D01*
X36214998Y-23687200D01*
X36213922Y-23683954D01*
X36159814Y-23520666D01*
X36067712Y-23371344D01*
X35943656Y-23247288D01*
X35794334Y-23155186D01*
X35627797Y-23100001D01*
X35627795Y-23100000D01*
X35525010Y-23089500D01*
X34474998Y-23089500D01*
X34474980Y-23089501D01*
X34372203Y-23100000D01*
X34372200Y-23100001D01*
X34205668Y-23155185D01*
X34205663Y-23155187D01*
X34056342Y-23247289D01*
X33932289Y-23371342D01*
X33840187Y-23520663D01*
X33840185Y-23520668D01*
X33823802Y-23570109D01*
X33785001Y-23687203D01*
X33785001Y-23687204D01*
X33785000Y-23687204D01*
X33774500Y-23789983D01*
X20633216Y-23789983D01*
X20644902Y-23765250D01*
X20653999Y-23738556D01*
X20660358Y-23732541D01*
X20662702Y-23727583D01*
X20678507Y-23715379D01*
X20689674Y-23704820D01*
X20694244Y-23701965D01*
X20707816Y-23695051D01*
X20879792Y-23570104D01*
X21030104Y-23419792D01*
X21030106Y-23419788D01*
X21030109Y-23419786D01*
X21155048Y-23247820D01*
X21155047Y-23247820D01*
X21155051Y-23247816D01*
X21251557Y-23058412D01*
X21317246Y-22856243D01*
X21350500Y-22646287D01*
X21350500Y-22433713D01*
X21317246Y-22223757D01*
X21251557Y-22021588D01*
X21155051Y-21832184D01*
X21155049Y-21832181D01*
X21155048Y-21832179D01*
X21030109Y-21660213D01*
X20879786Y-21509890D01*
X20707819Y-21384951D01*
X20707818Y-21384950D01*
X20707816Y-21384949D01*
X20608775Y-21334485D01*
X20557979Y-21286510D01*
X20541184Y-21218689D01*
X20563721Y-21152554D01*
X20618437Y-21109103D01*
X20665070Y-21100000D01*
X20874626Y-21100000D01*
X20874628Y-21099999D01*
X20947540Y-21085496D01*
X20947544Y-21085494D01*
X21030239Y-21030239D01*
X21085494Y-20947544D01*
X21085496Y-20947540D01*
X21099999Y-20874628D01*
X21100000Y-20874626D01*
X21100000Y-20250000D01*
X20433012Y-20250000D01*
X20465925Y-20192993D01*
X20500000Y-20065826D01*
X20500000Y-19934174D01*
X20465925Y-19807007D01*
X20433012Y-19750000D01*
X21100000Y-19750000D01*
X21100000Y-19125373D01*
X21099999Y-19125371D01*
X21085496Y-19052459D01*
X21085494Y-19052455D01*
X21030239Y-18969760D01*
X20947544Y-18914505D01*
X20947540Y-18914503D01*
X20917113Y-18908451D01*
X20874627Y-18900000D01*
X20250000Y-18900000D01*
X20250000Y-19566988D01*
X20192993Y-19534075D01*
X20065826Y-19500000D01*
X19934174Y-19500000D01*
X19807007Y-19534075D01*
X19750000Y-19566988D01*
X19750000Y-18900000D01*
X19125373Y-18900000D01*
X19052459Y-18914503D01*
X19052455Y-18914505D01*
X18969760Y-18969760D01*
X18914505Y-19052455D01*
X18914503Y-19052459D01*
X18900000Y-19125371D01*
X18900000Y-19750000D01*
X19566988Y-19750000D01*
X19534075Y-19807007D01*
X19500000Y-19934174D01*
X19500000Y-20065826D01*
X19534075Y-20192993D01*
X19566988Y-20250000D01*
X18900000Y-20250000D01*
X18900000Y-20874628D01*
X18914503Y-20947540D01*
X18914505Y-20947544D01*
X18969760Y-21030239D01*
X19052455Y-21085494D01*
X19052459Y-21085496D01*
X19125371Y-21099999D01*
X19125374Y-21100000D01*
X19334930Y-21100000D01*
X19401969Y-21119685D01*
X19447724Y-21172489D01*
X19457668Y-21241647D01*
X19428643Y-21305203D01*
X19391225Y-21334485D01*
X19292180Y-21384951D01*
X19120213Y-21509890D01*
X18969890Y-21660213D01*
X18844951Y-21832179D01*
X18748444Y-22021585D01*
X18682753Y-22223760D01*
X18649500Y-22433713D01*
X7888044Y-22433713D01*
X7830170Y-22355296D01*
X7644703Y-22169829D01*
X7433669Y-22014080D01*
X7433663Y-22014076D01*
X7201775Y-21891519D01*
X6954202Y-21804889D01*
X6954192Y-21804887D01*
X6696496Y-21756128D01*
X6696489Y-21756127D01*
X6587380Y-21750000D01*
X5250000Y-21750000D01*
X5250000Y-22763497D01*
X5147473Y-22750000D01*
X4852527Y-22750000D01*
X4750000Y-22763497D01*
X4750000Y-21750000D01*
X3412638Y-21750000D01*
X3412618Y-21750001D01*
X3303512Y-21756127D01*
X3303504Y-21756128D01*
X3045807Y-21804887D01*
X3045797Y-21804889D01*
X2798224Y-21891519D01*
X2566336Y-22014076D01*
X2566330Y-22014080D01*
X2355296Y-22169829D01*
X2169829Y-22355296D01*
X2014080Y-22566330D01*
X2014076Y-22566336D01*
X1891519Y-22798224D01*
X1804889Y-23045797D01*
X1804887Y-23045807D01*
X1756128Y-23303503D01*
X1756127Y-23303510D01*
X1750000Y-23412619D01*
X500500Y-23412619D01*
X500500Y-17628034D01*
X1499500Y-17628034D01*
X1499500Y-17971965D01*
X1533210Y-18314249D01*
X1600308Y-18651572D01*
X1700150Y-18980706D01*
X1831770Y-19298464D01*
X1831772Y-19298469D01*
X1993893Y-19601775D01*
X1993904Y-19601793D01*
X2184975Y-19887751D01*
X2184985Y-19887765D01*
X2403176Y-20153632D01*
X2646367Y-20396823D01*
X2646372Y-20396827D01*
X2646373Y-20396828D01*
X2912240Y-20615019D01*
X3198213Y-20806100D01*
X3198222Y-20806105D01*
X3198224Y-20806106D01*
X3501530Y-20968227D01*
X3501532Y-20968227D01*
X3501538Y-20968231D01*
X3819295Y-21099850D01*
X4148422Y-21199690D01*
X4485750Y-21266789D01*
X4828031Y-21300500D01*
X4828034Y-21300500D01*
X5171966Y-21300500D01*
X5171969Y-21300500D01*
X5514250Y-21266789D01*
X5851578Y-21199690D01*
X6180705Y-21099850D01*
X6498462Y-20968231D01*
X6801787Y-20806100D01*
X7087760Y-20615019D01*
X7353627Y-20396828D01*
X7596828Y-20153627D01*
X7815019Y-19887760D01*
X8006100Y-19601787D01*
X8168231Y-19298462D01*
X8299850Y-18980705D01*
X8357705Y-18789983D01*
X33774500Y-18789983D01*
X33774500Y-19390001D01*
X33774501Y-19390019D01*
X33785000Y-19492796D01*
X33785001Y-19492799D01*
X33840185Y-19659331D01*
X33840187Y-19659336D01*
X33932289Y-19808657D01*
X34056346Y-19932714D01*
X34059182Y-19934463D01*
X34060717Y-19936170D01*
X34062011Y-19937193D01*
X34061836Y-19937414D01*
X34105905Y-19986411D01*
X34117126Y-20055374D01*
X34089282Y-20119456D01*
X34059182Y-20145537D01*
X34056346Y-20147285D01*
X33932289Y-20271342D01*
X33840187Y-20420663D01*
X33840185Y-20420668D01*
X33813897Y-20500000D01*
X33785001Y-20587203D01*
X33785001Y-20587204D01*
X33785000Y-20587204D01*
X33774500Y-20689983D01*
X33774500Y-21290001D01*
X33774501Y-21290019D01*
X33785000Y-21392796D01*
X33785001Y-21392799D01*
X33803184Y-21447671D01*
X33840186Y-21559334D01*
X33932288Y-21708656D01*
X34056344Y-21832712D01*
X34205666Y-21924814D01*
X34372203Y-21979999D01*
X34474991Y-21990500D01*
X35525008Y-21990499D01*
X35525016Y-21990498D01*
X35525019Y-21990498D01*
X35581302Y-21984748D01*
X35627797Y-21979999D01*
X35794334Y-21924814D01*
X35943656Y-21832712D01*
X36067712Y-21708656D01*
X36159814Y-21559334D01*
X36214999Y-21392797D01*
X36225500Y-21290009D01*
X36225499Y-20689992D01*
X36214999Y-20587203D01*
X36159814Y-20420666D01*
X36067712Y-20271344D01*
X35943656Y-20147288D01*
X35940819Y-20145538D01*
X35939283Y-20143830D01*
X35937989Y-20142807D01*
X35938163Y-20142585D01*
X35894096Y-20093594D01*
X35882872Y-20024632D01*
X35910713Y-19960549D01*
X35940817Y-19934462D01*
X35943656Y-19932712D01*
X36067712Y-19808656D01*
X36159814Y-19659334D01*
X36214999Y-19492797D01*
X36225500Y-19390009D01*
X36225499Y-18789992D01*
X36221157Y-18747491D01*
X36214999Y-18687203D01*
X36214998Y-18687200D01*
X36203192Y-18651572D01*
X36159814Y-18520666D01*
X36067712Y-18371344D01*
X35943656Y-18247288D01*
X35794334Y-18155186D01*
X35627797Y-18100001D01*
X35627795Y-18100000D01*
X35525010Y-18089500D01*
X34474998Y-18089500D01*
X34474980Y-18089501D01*
X34372203Y-18100000D01*
X34372200Y-18100001D01*
X34205668Y-18155185D01*
X34205663Y-18155187D01*
X34056342Y-18247289D01*
X33932289Y-18371342D01*
X33840187Y-18520663D01*
X33840186Y-18520666D01*
X33785001Y-18687203D01*
X33785001Y-18687204D01*
X33785000Y-18687204D01*
X33774500Y-18789983D01*
X8357705Y-18789983D01*
X8399690Y-18651578D01*
X8466789Y-18314250D01*
X8500500Y-17971969D01*
X8500500Y-17628031D01*
X8481362Y-17433713D01*
X38649500Y-17433713D01*
X38649500Y-17646286D01*
X38682753Y-17856239D01*
X38748444Y-18058414D01*
X38844951Y-18247820D01*
X38969890Y-18419786D01*
X39120213Y-18570109D01*
X39292182Y-18695050D01*
X39300946Y-18699516D01*
X39351742Y-18747491D01*
X39368536Y-18815312D01*
X39345998Y-18881447D01*
X39300946Y-18920484D01*
X39292182Y-18924949D01*
X39120213Y-19049890D01*
X38969890Y-19200213D01*
X38844951Y-19372179D01*
X38748444Y-19561585D01*
X38748443Y-19561587D01*
X38748443Y-19561588D01*
X38735380Y-19601793D01*
X38682753Y-19763760D01*
X38663113Y-19887765D01*
X38649500Y-19973713D01*
X38649500Y-20186287D01*
X38682754Y-20396243D01*
X38744801Y-20587204D01*
X38748444Y-20598414D01*
X38844951Y-20787820D01*
X38969890Y-20959786D01*
X39120213Y-21110109D01*
X39292179Y-21235048D01*
X39292181Y-21235049D01*
X39292184Y-21235051D01*
X39481588Y-21331557D01*
X39683757Y-21397246D01*
X39893713Y-21430500D01*
X39893714Y-21430500D01*
X40106286Y-21430500D01*
X40106287Y-21430500D01*
X40316243Y-21397246D01*
X40518412Y-21331557D01*
X40707816Y-21235051D01*
X40730337Y-21218689D01*
X40879786Y-21110109D01*
X40879788Y-21110106D01*
X40879792Y-21110104D01*
X41030104Y-20959792D01*
X41030106Y-20959788D01*
X41030109Y-20959786D01*
X41155048Y-20787820D01*
X41155047Y-20787820D01*
X41155051Y-20787816D01*
X41251557Y-20598412D01*
X41317246Y-20396243D01*
X41350500Y-20186287D01*
X41350500Y-19973713D01*
X41317246Y-19763757D01*
X41251557Y-19561588D01*
X41155051Y-19372184D01*
X41155049Y-19372181D01*
X41155048Y-19372179D01*
X41030109Y-19200213D01*
X40879786Y-19049890D01*
X40707820Y-18924951D01*
X40707115Y-18924591D01*
X40699054Y-18920485D01*
X40648259Y-18872512D01*
X40631463Y-18804692D01*
X40653999Y-18738556D01*
X40699054Y-18699515D01*
X40707816Y-18695051D01*
X40794138Y-18632335D01*
X40879786Y-18570109D01*
X40879788Y-18570106D01*
X40879792Y-18570104D01*
X41030104Y-18419792D01*
X41030106Y-18419788D01*
X41030109Y-18419786D01*
X41155048Y-18247820D01*
X41155047Y-18247820D01*
X41155051Y-18247816D01*
X41251557Y-18058412D01*
X41317246Y-17856243D01*
X41350500Y-17646287D01*
X41350500Y-17433713D01*
X41317246Y-17223757D01*
X41251557Y-17021588D01*
X41155051Y-16832184D01*
X41155049Y-16832181D01*
X41155048Y-16832179D01*
X41030109Y-16660213D01*
X40879786Y-16509890D01*
X40707819Y-16384951D01*
X40707818Y-16384950D01*
X40707816Y-16384949D01*
X40608775Y-16334485D01*
X40557979Y-16286510D01*
X40541184Y-16218689D01*
X40563721Y-16152554D01*
X40618437Y-16109103D01*
X40665070Y-16100000D01*
X40874626Y-16100000D01*
X40874628Y-16099999D01*
X40947540Y-16085496D01*
X40947544Y-16085494D01*
X41030239Y-16030239D01*
X41085494Y-15947544D01*
X41085496Y-15947540D01*
X41099999Y-15874628D01*
X41100000Y-15874626D01*
X41100000Y-15250000D01*
X40433012Y-15250000D01*
X40465925Y-15192993D01*
X40500000Y-15065826D01*
X40500000Y-14934174D01*
X40465925Y-14807007D01*
X40433012Y-14750000D01*
X41100000Y-14750000D01*
X41100000Y-14125373D01*
X41099999Y-14125371D01*
X41085496Y-14052459D01*
X41085494Y-14052455D01*
X41030239Y-13969760D01*
X40947544Y-13914505D01*
X40947540Y-13914503D01*
X40874627Y-13900000D01*
X40250000Y-13900000D01*
X40250000Y-14566988D01*
X40192993Y-14534075D01*
X40065826Y-14500000D01*
X39934174Y-14500000D01*
X39807007Y-14534075D01*
X39750000Y-14566988D01*
X39750000Y-13900000D01*
X39125373Y-13900000D01*
X39052459Y-13914503D01*
X39052455Y-13914505D01*
X38969760Y-13969760D01*
X38914505Y-14052455D01*
X38914503Y-14052459D01*
X38900000Y-14125371D01*
X38900000Y-14750000D01*
X39566988Y-14750000D01*
X39534075Y-14807007D01*
X39500000Y-14934174D01*
X39500000Y-15065826D01*
X39534075Y-15192993D01*
X39566988Y-15250000D01*
X38900000Y-15250000D01*
X38900000Y-15874628D01*
X38914503Y-15947540D01*
X38914505Y-15947544D01*
X38969760Y-16030239D01*
X39052455Y-16085494D01*
X39052459Y-16085496D01*
X39125371Y-16099999D01*
X39125374Y-16100000D01*
X39334930Y-16100000D01*
X39401969Y-16119685D01*
X39447724Y-16172489D01*
X39457668Y-16241647D01*
X39428643Y-16305203D01*
X39391225Y-16334485D01*
X39292180Y-16384951D01*
X39120213Y-16509890D01*
X38969890Y-16660213D01*
X38844951Y-16832179D01*
X38748444Y-17021585D01*
X38682753Y-17223760D01*
X38649500Y-17433713D01*
X8481362Y-17433713D01*
X8466789Y-17285750D01*
X8399690Y-16948422D01*
X8299850Y-16619295D01*
X8168231Y-16301538D01*
X8162072Y-16290016D01*
X8006106Y-15998224D01*
X8006105Y-15998222D01*
X8006100Y-15998213D01*
X7815019Y-15712240D01*
X7596828Y-15446373D01*
X7596827Y-15446372D01*
X7596823Y-15446367D01*
X7353632Y-15203176D01*
X7087765Y-14984985D01*
X7087764Y-14984984D01*
X7087760Y-14984981D01*
X6801787Y-14793900D01*
X6801782Y-14793897D01*
X6801775Y-14793893D01*
X6498469Y-14631772D01*
X6498464Y-14631770D01*
X6180706Y-14500150D01*
X5851572Y-14400308D01*
X5514248Y-14333210D01*
X5514249Y-14333210D01*
X5256456Y-14307821D01*
X5171969Y-14299500D01*
X4828031Y-14299500D01*
X4749966Y-14307188D01*
X4485750Y-14333210D01*
X4148427Y-14400308D01*
X3819293Y-14500150D01*
X3501535Y-14631770D01*
X3501530Y-14631772D01*
X3198224Y-14793893D01*
X3198206Y-14793904D01*
X2912248Y-14984975D01*
X2912234Y-14984985D01*
X2646367Y-15203176D01*
X2403176Y-15446367D01*
X2184985Y-15712234D01*
X2184975Y-15712248D01*
X1993904Y-15998206D01*
X1993893Y-15998224D01*
X1831772Y-16301530D01*
X1831770Y-16301535D01*
X1700150Y-16619293D01*
X1600308Y-16948427D01*
X1533210Y-17285750D01*
X1499500Y-17628034D01*
X500500Y-17628034D01*
X500500Y-12433713D01*
X18649500Y-12433713D01*
X18649500Y-12646286D01*
X18682753Y-12856239D01*
X18748444Y-13058414D01*
X18844951Y-13247820D01*
X18969890Y-13419786D01*
X19120213Y-13570109D01*
X19292182Y-13695050D01*
X19300946Y-13699516D01*
X19351742Y-13747491D01*
X19368536Y-13815312D01*
X19345998Y-13881447D01*
X19300946Y-13920484D01*
X19292182Y-13924949D01*
X19120213Y-14049890D01*
X18969890Y-14200213D01*
X18844951Y-14372179D01*
X18748444Y-14561585D01*
X18682753Y-14763760D01*
X18675642Y-14808657D01*
X18649500Y-14973713D01*
X18649500Y-15186287D01*
X18682754Y-15396243D01*
X18744801Y-15587204D01*
X18748444Y-15598414D01*
X18844951Y-15787820D01*
X18969890Y-15959786D01*
X19120213Y-16110109D01*
X19292179Y-16235048D01*
X19292181Y-16235049D01*
X19292184Y-16235051D01*
X19481588Y-16331557D01*
X19683757Y-16397246D01*
X19893713Y-16430500D01*
X19893714Y-16430500D01*
X20106286Y-16430500D01*
X20106287Y-16430500D01*
X20316243Y-16397246D01*
X20518412Y-16331557D01*
X20707816Y-16235051D01*
X20730337Y-16218689D01*
X20879786Y-16110109D01*
X20879788Y-16110106D01*
X20879792Y-16110104D01*
X21030104Y-15959792D01*
X21030106Y-15959788D01*
X21030109Y-15959786D01*
X21155048Y-15787820D01*
X21155047Y-15787820D01*
X21155051Y-15787816D01*
X21251557Y-15598412D01*
X21317246Y-15396243D01*
X21350500Y-15186287D01*
X21350500Y-14973713D01*
X21317246Y-14763757D01*
X21251557Y-14561588D01*
X21155051Y-14372184D01*
X21155049Y-14372181D01*
X21155048Y-14372179D01*
X21030109Y-14200213D01*
X20879786Y-14049890D01*
X20707820Y-13924951D01*
X20707115Y-13924591D01*
X20699054Y-13920485D01*
X20693827Y-13915548D01*
X20686956Y-13913433D01*
X20668764Y-13891877D01*
X20648259Y-13872512D01*
X20646530Y-13865533D01*
X20641893Y-13860038D01*
X20638242Y-13832066D01*
X20631463Y-13804692D01*
X20633781Y-13797887D01*
X20632851Y-13790755D01*
X20633216Y-13789983D01*
X33774500Y-13789983D01*
X33774500Y-14390001D01*
X33774501Y-14390019D01*
X33785000Y-14492796D01*
X33785001Y-14492799D01*
X33798679Y-14534075D01*
X33840186Y-14659334D01*
X33923186Y-14793900D01*
X33932289Y-14808657D01*
X34056346Y-14932714D01*
X34059182Y-14934463D01*
X34060717Y-14936170D01*
X34062011Y-14937193D01*
X34061836Y-14937414D01*
X34105905Y-14986411D01*
X34117126Y-15055374D01*
X34089282Y-15119456D01*
X34059182Y-15145537D01*
X34056346Y-15147285D01*
X33932289Y-15271342D01*
X33840187Y-15420663D01*
X33840185Y-15420668D01*
X33813897Y-15500000D01*
X33785001Y-15587203D01*
X33785001Y-15587204D01*
X33785000Y-15587204D01*
X33774500Y-15689983D01*
X33774500Y-16290001D01*
X33774501Y-16290019D01*
X33785000Y-16392796D01*
X33785001Y-16392799D01*
X33803184Y-16447671D01*
X33840186Y-16559334D01*
X33932288Y-16708656D01*
X34056344Y-16832712D01*
X34205666Y-16924814D01*
X34372203Y-16979999D01*
X34474991Y-16990500D01*
X35525008Y-16990499D01*
X35525016Y-16990498D01*
X35525019Y-16990498D01*
X35581302Y-16984748D01*
X35627797Y-16979999D01*
X35794334Y-16924814D01*
X35943656Y-16832712D01*
X36067712Y-16708656D01*
X36159814Y-16559334D01*
X36214999Y-16392797D01*
X36225500Y-16290009D01*
X36225499Y-15689992D01*
X36214999Y-15587203D01*
X36159814Y-15420666D01*
X36067712Y-15271344D01*
X35943656Y-15147288D01*
X35940819Y-15145538D01*
X35939283Y-15143830D01*
X35937989Y-15142807D01*
X35938163Y-15142585D01*
X35894096Y-15093594D01*
X35882872Y-15024632D01*
X35910713Y-14960549D01*
X35940817Y-14934462D01*
X35943656Y-14932712D01*
X36067712Y-14808656D01*
X36159814Y-14659334D01*
X36214999Y-14492797D01*
X36225500Y-14390009D01*
X36225499Y-14086673D01*
X36225499Y-13789999D01*
X36225498Y-13789980D01*
X36214999Y-13687203D01*
X36214998Y-13687200D01*
X36213922Y-13683954D01*
X36159814Y-13520666D01*
X36067712Y-13371344D01*
X35943656Y-13247288D01*
X35794334Y-13155186D01*
X35627797Y-13100001D01*
X35627795Y-13100000D01*
X35525010Y-13089500D01*
X34474998Y-13089500D01*
X34474980Y-13089501D01*
X34372203Y-13100000D01*
X34372200Y-13100001D01*
X34205668Y-13155185D01*
X34205663Y-13155187D01*
X34056342Y-13247289D01*
X33932289Y-13371342D01*
X33840187Y-13520663D01*
X33840185Y-13520668D01*
X33823802Y-13570109D01*
X33785001Y-13687203D01*
X33785001Y-13687204D01*
X33785000Y-13687204D01*
X33774500Y-13789983D01*
X20633216Y-13789983D01*
X20644902Y-13765250D01*
X20653999Y-13738556D01*
X20660358Y-13732541D01*
X20662702Y-13727583D01*
X20678507Y-13715379D01*
X20689674Y-13704820D01*
X20694244Y-13701965D01*
X20707816Y-13695051D01*
X20879792Y-13570104D01*
X21030104Y-13419792D01*
X21030106Y-13419788D01*
X21030109Y-13419786D01*
X21155048Y-13247820D01*
X21155047Y-13247820D01*
X21155051Y-13247816D01*
X21251557Y-13058412D01*
X21317246Y-12856243D01*
X21350500Y-12646287D01*
X21350500Y-12433713D01*
X21317246Y-12223757D01*
X21251557Y-12021588D01*
X21155051Y-11832184D01*
X21030104Y-11660208D01*
X21012031Y-11642135D01*
X44649500Y-11642135D01*
X44649500Y-13437870D01*
X44649501Y-13437876D01*
X44655908Y-13497483D01*
X44706202Y-13632328D01*
X44706206Y-13632335D01*
X44792452Y-13747544D01*
X44792455Y-13747547D01*
X44907664Y-13833793D01*
X44907671Y-13833797D01*
X45039082Y-13882810D01*
X45095016Y-13924681D01*
X45119433Y-13990145D01*
X45104582Y-14058418D01*
X45083431Y-14086673D01*
X44969889Y-14200215D01*
X44844951Y-14372179D01*
X44748444Y-14561585D01*
X44682753Y-14763760D01*
X44675642Y-14808657D01*
X44649500Y-14973713D01*
X44649500Y-15186287D01*
X44682754Y-15396243D01*
X44744801Y-15587204D01*
X44748444Y-15598414D01*
X44844951Y-15787820D01*
X44969890Y-15959786D01*
X45025163Y-16015059D01*
X45058648Y-16076382D01*
X45053664Y-16146074D01*
X45011792Y-16202007D01*
X44980815Y-16218922D01*
X44907671Y-16246202D01*
X44907664Y-16246206D01*
X44792455Y-16332452D01*
X44792452Y-16332455D01*
X44706206Y-16447664D01*
X44706202Y-16447671D01*
X44655908Y-16582517D01*
X44649501Y-16642116D01*
X44649501Y-16642123D01*
X44649500Y-16642135D01*
X44649500Y-18437870D01*
X44649501Y-18437876D01*
X44655908Y-18497483D01*
X44706202Y-18632328D01*
X44706206Y-18632335D01*
X44792452Y-18747544D01*
X44792455Y-18747547D01*
X44907664Y-18833793D01*
X44907671Y-18833797D01*
X45039082Y-18882810D01*
X45095016Y-18924681D01*
X45119433Y-18990145D01*
X45104582Y-19058418D01*
X45083431Y-19086673D01*
X44969889Y-19200215D01*
X44844951Y-19372179D01*
X44748444Y-19561585D01*
X44748443Y-19561587D01*
X44748443Y-19561588D01*
X44735380Y-19601793D01*
X44682753Y-19763760D01*
X44663113Y-19887765D01*
X44649500Y-19973713D01*
X44649500Y-20186287D01*
X44682754Y-20396243D01*
X44744801Y-20587204D01*
X44748444Y-20598414D01*
X44844951Y-20787820D01*
X44969890Y-20959786D01*
X45025163Y-21015059D01*
X45058648Y-21076382D01*
X45053664Y-21146074D01*
X45011792Y-21202007D01*
X44980815Y-21218922D01*
X44907671Y-21246202D01*
X44907664Y-21246206D01*
X44792455Y-21332452D01*
X44792452Y-21332455D01*
X44706206Y-21447664D01*
X44706202Y-21447671D01*
X44655908Y-21582517D01*
X44649501Y-21642116D01*
X44649501Y-21642123D01*
X44649500Y-21642135D01*
X44649500Y-23437870D01*
X44649501Y-23437876D01*
X44655908Y-23497483D01*
X44706202Y-23632328D01*
X44706206Y-23632335D01*
X44792452Y-23747544D01*
X44792455Y-23747547D01*
X44907664Y-23833793D01*
X44907671Y-23833797D01*
X45039082Y-23882810D01*
X45095016Y-23924681D01*
X45119433Y-23990145D01*
X45104582Y-24058418D01*
X45083431Y-24086673D01*
X44969889Y-24200215D01*
X44844951Y-24372179D01*
X44748444Y-24561585D01*
X44682753Y-24763760D01*
X44675642Y-24808657D01*
X44649500Y-24973713D01*
X44649500Y-25186287D01*
X44682754Y-25396243D01*
X44744801Y-25587204D01*
X44748444Y-25598414D01*
X44844951Y-25787820D01*
X44969890Y-25959786D01*
X45025163Y-26015059D01*
X45058648Y-26076382D01*
X45053664Y-26146074D01*
X45011792Y-26202007D01*
X44980815Y-26218922D01*
X44907671Y-26246202D01*
X44907664Y-26246206D01*
X44792455Y-26332452D01*
X44792452Y-26332455D01*
X44706206Y-26447664D01*
X44706202Y-26447671D01*
X44655908Y-26582517D01*
X44653776Y-26602352D01*
X44649501Y-26642123D01*
X44649500Y-26642135D01*
X44649500Y-28437870D01*
X44649501Y-28437876D01*
X44655908Y-28497483D01*
X44706202Y-28632328D01*
X44706206Y-28632335D01*
X44792452Y-28747544D01*
X44792455Y-28747547D01*
X44907664Y-28833793D01*
X44907671Y-28833797D01*
X45039082Y-28882810D01*
X45095016Y-28924681D01*
X45119433Y-28990145D01*
X45104582Y-29058418D01*
X45083431Y-29086673D01*
X44969889Y-29200215D01*
X44844951Y-29372179D01*
X44748444Y-29561585D01*
X44682753Y-29763760D01*
X44649500Y-29973713D01*
X44649500Y-30186286D01*
X44679031Y-30372741D01*
X44682754Y-30396243D01*
X44748258Y-30597844D01*
X44748444Y-30598414D01*
X44844951Y-30787820D01*
X44969890Y-30959786D01*
X45025163Y-31015059D01*
X45058648Y-31076382D01*
X45053664Y-31146074D01*
X45011792Y-31202007D01*
X44980815Y-31218922D01*
X44907671Y-31246202D01*
X44907664Y-31246206D01*
X44792455Y-31332452D01*
X44792452Y-31332455D01*
X44706206Y-31447664D01*
X44706202Y-31447671D01*
X44655908Y-31582517D01*
X44649501Y-31642116D01*
X44649501Y-31642123D01*
X44649500Y-31642135D01*
X44649500Y-33437870D01*
X44649501Y-33437876D01*
X44655908Y-33497483D01*
X44706202Y-33632328D01*
X44706206Y-33632335D01*
X44792452Y-33747544D01*
X44792455Y-33747547D01*
X44907664Y-33833793D01*
X44907671Y-33833797D01*
X45039082Y-33882810D01*
X45095016Y-33924681D01*
X45119433Y-33990145D01*
X45104582Y-34058418D01*
X45083431Y-34086673D01*
X44969889Y-34200215D01*
X44844951Y-34372179D01*
X44748444Y-34561585D01*
X44682753Y-34763760D01*
X44675642Y-34808657D01*
X44649500Y-34973713D01*
X44649500Y-35186287D01*
X44682754Y-35396243D01*
X44744801Y-35587204D01*
X44748444Y-35598414D01*
X44844951Y-35787820D01*
X44969890Y-35959786D01*
X45025163Y-36015059D01*
X45058648Y-36076382D01*
X45053664Y-36146074D01*
X45011792Y-36202007D01*
X44980815Y-36218922D01*
X44907671Y-36246202D01*
X44907664Y-36246206D01*
X44792455Y-36332452D01*
X44792452Y-36332455D01*
X44706206Y-36447664D01*
X44706202Y-36447671D01*
X44655908Y-36582517D01*
X44649501Y-36642116D01*
X44649501Y-36642123D01*
X44649500Y-36642135D01*
X44649500Y-38437870D01*
X44649501Y-38437876D01*
X44655908Y-38497483D01*
X44706202Y-38632328D01*
X44706206Y-38632335D01*
X44792452Y-38747544D01*
X44792455Y-38747547D01*
X44907664Y-38833793D01*
X44907671Y-38833797D01*
X45039082Y-38882810D01*
X45095016Y-38924681D01*
X45119433Y-38990145D01*
X45104582Y-39058418D01*
X45083431Y-39086673D01*
X44969889Y-39200215D01*
X44844951Y-39372179D01*
X44748444Y-39561585D01*
X44682753Y-39763760D01*
X44675642Y-39808657D01*
X44649500Y-39973713D01*
X44649500Y-40186287D01*
X44682754Y-40396243D01*
X44744801Y-40587204D01*
X44748444Y-40598414D01*
X44844951Y-40787820D01*
X44969890Y-40959786D01*
X45025163Y-41015059D01*
X45058648Y-41076382D01*
X45053664Y-41146074D01*
X45011792Y-41202007D01*
X44980815Y-41218922D01*
X44907671Y-41246202D01*
X44907664Y-41246206D01*
X44792455Y-41332452D01*
X44792452Y-41332455D01*
X44706206Y-41447664D01*
X44706202Y-41447671D01*
X44655908Y-41582517D01*
X44649501Y-41642116D01*
X44649501Y-41642123D01*
X44649500Y-41642135D01*
X44649500Y-43437870D01*
X44649501Y-43437876D01*
X44655908Y-43497483D01*
X44706202Y-43632328D01*
X44706206Y-43632335D01*
X44792452Y-43747544D01*
X44792455Y-43747547D01*
X44907664Y-43833793D01*
X44907671Y-43833797D01*
X45039082Y-43882810D01*
X45095016Y-43924681D01*
X45119433Y-43990145D01*
X45104582Y-44058418D01*
X45083431Y-44086673D01*
X44969889Y-44200215D01*
X44844951Y-44372179D01*
X44748444Y-44561585D01*
X44682753Y-44763760D01*
X44675642Y-44808657D01*
X44649500Y-44973713D01*
X44649500Y-45186287D01*
X44682754Y-45396243D01*
X44744801Y-45587204D01*
X44748444Y-45598414D01*
X44844951Y-45787820D01*
X44969890Y-45959786D01*
X45120213Y-46110109D01*
X45292179Y-46235048D01*
X45292181Y-46235049D01*
X45292184Y-46235051D01*
X45481588Y-46331557D01*
X45683757Y-46397246D01*
X45893713Y-46430500D01*
X45893714Y-46430500D01*
X46106286Y-46430500D01*
X46106287Y-46430500D01*
X46316243Y-46397246D01*
X46518412Y-46331557D01*
X46707816Y-46235051D01*
X46729789Y-46219086D01*
X46879786Y-46110109D01*
X46879788Y-46110106D01*
X46879792Y-46110104D01*
X47030104Y-45959792D01*
X47030106Y-45959788D01*
X47030109Y-45959786D01*
X47155048Y-45787820D01*
X47155047Y-45787820D01*
X47155051Y-45787816D01*
X47251557Y-45598412D01*
X47317246Y-45396243D01*
X47350500Y-45186287D01*
X47350500Y-44973713D01*
X47317246Y-44763757D01*
X47251557Y-44561588D01*
X47155051Y-44372184D01*
X47155049Y-44372181D01*
X47155048Y-44372179D01*
X47030109Y-44200213D01*
X46916569Y-44086673D01*
X46883084Y-44025350D01*
X46888068Y-43955658D01*
X46929940Y-43899725D01*
X46960915Y-43882810D01*
X47092331Y-43833796D01*
X47207546Y-43747546D01*
X47293796Y-43632331D01*
X47344091Y-43497483D01*
X47350500Y-43437873D01*
X47350499Y-41642128D01*
X47344091Y-41582517D01*
X47335444Y-41559334D01*
X47293797Y-41447671D01*
X47293793Y-41447664D01*
X47207547Y-41332455D01*
X47207544Y-41332452D01*
X47092335Y-41246206D01*
X47092326Y-41246201D01*
X47019185Y-41218922D01*
X46963251Y-41177051D01*
X46938833Y-41111587D01*
X46953684Y-41043314D01*
X46974834Y-41015061D01*
X47030104Y-40959792D01*
X47030107Y-40959787D01*
X47030109Y-40959786D01*
X47155048Y-40787820D01*
X47155047Y-40787820D01*
X47155051Y-40787816D01*
X47251557Y-40598412D01*
X47317246Y-40396243D01*
X47350500Y-40186287D01*
X47350500Y-39973713D01*
X47317246Y-39763757D01*
X47251557Y-39561588D01*
X47155051Y-39372184D01*
X47155049Y-39372181D01*
X47155048Y-39372179D01*
X47030109Y-39200213D01*
X46916569Y-39086673D01*
X46883084Y-39025350D01*
X46888068Y-38955658D01*
X46929940Y-38899725D01*
X46960915Y-38882810D01*
X47092331Y-38833796D01*
X47207546Y-38747546D01*
X47293796Y-38632331D01*
X47344091Y-38497483D01*
X47350500Y-38437873D01*
X47350499Y-36642128D01*
X47344091Y-36582517D01*
X47335444Y-36559334D01*
X47293797Y-36447671D01*
X47293793Y-36447664D01*
X47207547Y-36332455D01*
X47207544Y-36332452D01*
X47092335Y-36246206D01*
X47092326Y-36246201D01*
X47019185Y-36218922D01*
X46963251Y-36177051D01*
X46938833Y-36111587D01*
X46953684Y-36043314D01*
X46974834Y-36015061D01*
X47030104Y-35959792D01*
X47030107Y-35959787D01*
X47030109Y-35959786D01*
X47155048Y-35787820D01*
X47155047Y-35787820D01*
X47155051Y-35787816D01*
X47251557Y-35598412D01*
X47317246Y-35396243D01*
X47350500Y-35186287D01*
X47350500Y-34973713D01*
X47317246Y-34763757D01*
X47251557Y-34561588D01*
X47155051Y-34372184D01*
X47155049Y-34372181D01*
X47155048Y-34372179D01*
X47030109Y-34200213D01*
X46916569Y-34086673D01*
X46883084Y-34025350D01*
X46888068Y-33955658D01*
X46929940Y-33899725D01*
X46960915Y-33882810D01*
X47092331Y-33833796D01*
X47207546Y-33747546D01*
X47293796Y-33632331D01*
X47344091Y-33497483D01*
X47350500Y-33437873D01*
X47350499Y-31642128D01*
X47344091Y-31582517D01*
X47335444Y-31559334D01*
X47293797Y-31447671D01*
X47293793Y-31447664D01*
X47207547Y-31332455D01*
X47207544Y-31332452D01*
X47092335Y-31246206D01*
X47092326Y-31246201D01*
X47019185Y-31218922D01*
X46963251Y-31177051D01*
X46938833Y-31111587D01*
X46953684Y-31043314D01*
X46974834Y-31015061D01*
X47030104Y-30959792D01*
X47030107Y-30959787D01*
X47030109Y-30959786D01*
X47155048Y-30787820D01*
X47155047Y-30787820D01*
X47155051Y-30787816D01*
X47251557Y-30598412D01*
X47317246Y-30396243D01*
X47350500Y-30186287D01*
X47350500Y-29973713D01*
X47317246Y-29763757D01*
X47251557Y-29561588D01*
X47155051Y-29372184D01*
X47155049Y-29372181D01*
X47155048Y-29372179D01*
X47030109Y-29200213D01*
X46916569Y-29086673D01*
X46883084Y-29025350D01*
X46888068Y-28955658D01*
X46929940Y-28899725D01*
X46960915Y-28882810D01*
X47092331Y-28833796D01*
X47207546Y-28747546D01*
X47293796Y-28632331D01*
X47344091Y-28497483D01*
X47350500Y-28437873D01*
X47350499Y-26642128D01*
X47344091Y-26582517D01*
X47335444Y-26559334D01*
X47293797Y-26447671D01*
X47293793Y-26447664D01*
X47207547Y-26332455D01*
X47207544Y-26332452D01*
X47092335Y-26246206D01*
X47092326Y-26246201D01*
X47019185Y-26218922D01*
X46963251Y-26177051D01*
X46938833Y-26111587D01*
X46953684Y-26043314D01*
X46974834Y-26015061D01*
X47030104Y-25959792D01*
X47030107Y-25959787D01*
X47030109Y-25959786D01*
X47155048Y-25787820D01*
X47155047Y-25787820D01*
X47155051Y-25787816D01*
X47251557Y-25598412D01*
X47317246Y-25396243D01*
X47350500Y-25186287D01*
X47350500Y-24973713D01*
X47317246Y-24763757D01*
X47251557Y-24561588D01*
X47155051Y-24372184D01*
X47155049Y-24372181D01*
X47155048Y-24372179D01*
X47030109Y-24200213D01*
X46916569Y-24086673D01*
X46883084Y-24025350D01*
X46888068Y-23955658D01*
X46929940Y-23899725D01*
X46960915Y-23882810D01*
X47092331Y-23833796D01*
X47207546Y-23747546D01*
X47293796Y-23632331D01*
X47344091Y-23497483D01*
X47350500Y-23437873D01*
X47350499Y-21642128D01*
X47344091Y-21582517D01*
X47335444Y-21559334D01*
X47293797Y-21447671D01*
X47293793Y-21447664D01*
X47207547Y-21332455D01*
X47207544Y-21332452D01*
X47092335Y-21246206D01*
X47092326Y-21246201D01*
X47019185Y-21218922D01*
X46963251Y-21177051D01*
X46938833Y-21111587D01*
X46953684Y-21043314D01*
X46974834Y-21015061D01*
X47030104Y-20959792D01*
X47030107Y-20959787D01*
X47030109Y-20959786D01*
X47155048Y-20787820D01*
X47155047Y-20787820D01*
X47155051Y-20787816D01*
X47251557Y-20598412D01*
X47317246Y-20396243D01*
X47350500Y-20186287D01*
X47350500Y-19973713D01*
X47317246Y-19763757D01*
X47251557Y-19561588D01*
X47155051Y-19372184D01*
X47155049Y-19372181D01*
X47155048Y-19372179D01*
X47030109Y-19200213D01*
X46916569Y-19086673D01*
X46883084Y-19025350D01*
X46888068Y-18955658D01*
X46929940Y-18899725D01*
X46960915Y-18882810D01*
X47092331Y-18833796D01*
X47207546Y-18747546D01*
X47293796Y-18632331D01*
X47344091Y-18497483D01*
X47350500Y-18437873D01*
X47350499Y-16642128D01*
X47344091Y-16582517D01*
X47335444Y-16559334D01*
X47293797Y-16447671D01*
X47293793Y-16447664D01*
X47207547Y-16332455D01*
X47207544Y-16332452D01*
X47092335Y-16246206D01*
X47092326Y-16246201D01*
X47019185Y-16218922D01*
X46963251Y-16177051D01*
X46938833Y-16111587D01*
X46953684Y-16043314D01*
X46974834Y-16015061D01*
X47030104Y-15959792D01*
X47030107Y-15959787D01*
X47030109Y-15959786D01*
X47155048Y-15787820D01*
X47155047Y-15787820D01*
X47155051Y-15787816D01*
X47251557Y-15598412D01*
X47317246Y-15396243D01*
X47350500Y-15186287D01*
X47350500Y-14973713D01*
X47317246Y-14763757D01*
X47251557Y-14561588D01*
X47155051Y-14372184D01*
X47155049Y-14372181D01*
X47155048Y-14372179D01*
X47030109Y-14200213D01*
X46916569Y-14086673D01*
X46883084Y-14025350D01*
X46888068Y-13955658D01*
X46929940Y-13899725D01*
X46960915Y-13882810D01*
X47092331Y-13833796D01*
X47207546Y-13747546D01*
X47293796Y-13632331D01*
X47344091Y-13497483D01*
X47350500Y-13437873D01*
X47350499Y-11642128D01*
X47344091Y-11582517D01*
X47293796Y-11447669D01*
X47293795Y-11447668D01*
X47293793Y-11447664D01*
X47207547Y-11332455D01*
X47207544Y-11332452D01*
X47092335Y-11246206D01*
X47092328Y-11246202D01*
X46957482Y-11195908D01*
X46957483Y-11195908D01*
X46897883Y-11189501D01*
X46897881Y-11189500D01*
X46897873Y-11189500D01*
X46897864Y-11189500D01*
X45102129Y-11189500D01*
X45102123Y-11189501D01*
X45042516Y-11195908D01*
X44907671Y-11246202D01*
X44907664Y-11246206D01*
X44792455Y-11332452D01*
X44792452Y-11332455D01*
X44706206Y-11447664D01*
X44706202Y-11447671D01*
X44655908Y-11582517D01*
X44649501Y-11642116D01*
X44649501Y-11642123D01*
X44649500Y-11642135D01*
X21012031Y-11642135D01*
X20879792Y-11509896D01*
X20879786Y-11509890D01*
X20707819Y-11384951D01*
X20707818Y-11384950D01*
X20707816Y-11384949D01*
X20608775Y-11334485D01*
X20557979Y-11286510D01*
X20541184Y-11218689D01*
X20563721Y-11152554D01*
X20618437Y-11109103D01*
X20665070Y-11100000D01*
X20874626Y-11100000D01*
X20874628Y-11099999D01*
X20947540Y-11085496D01*
X20947544Y-11085494D01*
X21030239Y-11030239D01*
X21085494Y-10947544D01*
X21085496Y-10947540D01*
X21099999Y-10874628D01*
X21100000Y-10874626D01*
X21100000Y-10250000D01*
X20433012Y-10250000D01*
X20465925Y-10192993D01*
X20500000Y-10065826D01*
X20500000Y-9934174D01*
X20465925Y-9807007D01*
X20433012Y-9750000D01*
X21100000Y-9750000D01*
X21100000Y-9125373D01*
X21099999Y-9125371D01*
X21085496Y-9052459D01*
X21085494Y-9052455D01*
X21030239Y-8969760D01*
X20947544Y-8914505D01*
X20947540Y-8914503D01*
X20874627Y-8900000D01*
X20250000Y-8900000D01*
X20250000Y-9566988D01*
X20192993Y-9534075D01*
X20065826Y-9500000D01*
X19934174Y-9500000D01*
X19807007Y-9534075D01*
X19750000Y-9566988D01*
X19750000Y-8900000D01*
X19125373Y-8900000D01*
X19052459Y-8914503D01*
X19052455Y-8914505D01*
X18969760Y-8969760D01*
X18914505Y-9052455D01*
X18914503Y-9052459D01*
X18900000Y-9125371D01*
X18900000Y-9750000D01*
X19566988Y-9750000D01*
X19534075Y-9807007D01*
X19500000Y-9934174D01*
X19500000Y-10065826D01*
X19534075Y-10192993D01*
X19566988Y-10250000D01*
X18900000Y-10250000D01*
X18900000Y-10874628D01*
X18914503Y-10947540D01*
X18914505Y-10947544D01*
X18969760Y-11030239D01*
X19052455Y-11085494D01*
X19052459Y-11085496D01*
X19125371Y-11099999D01*
X19125374Y-11100000D01*
X19334930Y-11100000D01*
X19401969Y-11119685D01*
X19447724Y-11172489D01*
X19457668Y-11241647D01*
X19428643Y-11305203D01*
X19391225Y-11334485D01*
X19292180Y-11384951D01*
X19120213Y-11509890D01*
X18969890Y-11660213D01*
X18844951Y-11832179D01*
X18748444Y-12021585D01*
X18682753Y-12223760D01*
X18649500Y-12433713D01*
X500500Y-12433713D01*
X500500Y-624500D01*
X520185Y-557461D01*
X572989Y-511706D01*
X624500Y-500500D01*
X49375500Y-500500D01*
X49442539Y-520185D01*
G37*
%TD.AperFunction*%
%TD*%
M02*
